<svg xmlns:xlink="http://www.w3.org/1999/xlink" xmlns="http://www.w3.org/2000/svg" viewBox="0 0 799.99 799.99" width="799.99"  height="799.99" ><defs><style>.a13990{fill:#e8d575;}.a13991{fill:#dcdddd;}.a13992{fill:#231815;}</style></defs><g id="Y_K20"><path class="a13990" d="m701.37,586.82l-63.15-71.35h2.26V201.56c0-8.95-7.25-16.2-16.2-16.2H175.72c-8.95,0-16.2,7.25-16.2,16.2v313.91h2.2l-63.15,71.35c-5.21,4.67-8.19,11.33-8.19,18.33v15.11c0,5.24,4.25,9.49,9.49,9.49h600.19c5.24,0,9.49-4.25,9.49-9.49v-15.11c0-6.99-2.98-13.66-8.19-18.33Zm-93.72-329.61v214.68c0,8.41-6.81,15.22-15.22,15.22H208.05c-8.41,0-15.22-6.81-15.22-15.22v-242.95c0-8.41,6.81-15.22,15.22-15.22h384.37c8.41,0,15.22,6.81,15.22,15.22v28.27Z" style="" fill="#E8D575"></path><path class="a13991" d="m151.51,576.73l39.35-42.45c3.12-3.37,7.5-5.28,12.09-5.28h394.15c4.56,0,8.92,1.89,12.04,5.23l39.74,42.49c3.61,3.86.88,10.16-4.4,10.16H155.92c-5.27,0-8-6.27-4.42-10.14Z" fill="#DCDDDD"></path></g><g id="_レイヤー_1"><path class="a13992" d="m624.28,181.99H181.6c-6.78,0-13.15-.03-18.74,4.86-7,6.11-6.7,14.17-6.7,22.43v128.81c0,36.33,0,72.67,0,109,0,21.73,0,43.46,0,65.2v3.2c0,1.82,1.55,3.38,3.38,3.38h461.26c6.24,0,12.63.41,18.86,0,.28-.02.56,0,.83,0,1.82,0,3.38-1.55,3.38-3.38V205.22c0-1.2.04-2.42,0-3.62-.41-11-8.61-19.15-19.57-19.61-4.34-.18-4.33,6.57,0,6.75,7.59.32,12.55,5.93,12.82,13.33.05,1.47,0,2.96,0,4.44v308.97l3.38-3.38H166.78c-1.97,0-4.49-.43-6.43,0-.25.06-.57,0-.83,0l3.38,3.38v-45.54c0-33.98,0-67.95,0-101.93s0-70.87,0-106.3c0-19.55-.12-39.11,0-58.66.06-8.69,5.94-14.27,14.49-14.32,5.42-.03,10.84,0,16.26,0h380.14c16.1,0,32.2,0,48.3,0h2.19c4.34,0,4.35-6.75,0-6.75Z" fill="#231815"></path><path class="a13992" d="m611.02,228.94c-.52-11.66-9.46-18.54-20.54-18.6-4.7-.02-9.39,0-14.09,0H211.68c-7.09,0-13.82,1.32-18.45,7.43-4.22,5.57-3.77,11.85-3.77,18.33,0,21.72,0,43.45,0,65.17,0,53.62,0,107.25,0,160.87,0,4.67-.6,10.13.66,14.68,2.65,9.51,11.26,13.65,20.38,13.65h212.18c50.35,0,100.69,0,151.04,0,12.13,0,28.86,2.8,35.38-10.37,2.64-5.35,1.93-11.92,1.93-17.73s0-19.75,0-29.62c0-54.58,0-109.16,0-163.74v-11.82c0-4.34-6.75-4.35-6.75,0v202.86c0,3.92.22,7.91,0,11.82-.52,9.45-7.99,11.85-15.69,11.85H228.65c-9.69,0-30.24,3.55-32.32-10.01-.59-3.88-.12-8.12-.12-12.01v-111.81c0-28.23,0-56.46,0-84.69,0-8.99,0-17.98,0-26.97,0-4.3-.79-10.11,1-14.14,2.97-6.67,9.27-7.02,15.38-7.02h376.21c7.6,0,15.06,2.61,15.47,11.85.19,4.33,6.95,4.35,6.75,0h0Z" fill="#231815"></path><path class="a13992" d="m638.22,512.1H199.17c-11.95,0-23.93-.25-35.88,0-3.94.08-5.47,2.69-7.99,5.54-9.29,10.5-18.59,21-27.88,31.5s-18.15,20.5-27.22,30.75c-2.3,2.6-4.9,5.11-7.06,7.81-5.61,7.01-6.14,15-6.14,23.54,0,7.34-1.07,15.78,6.37,20.14,2.24,1.31,4.71,1.7,7.24,1.76,2.99.06,6,0,8.99,0,38.49,0,76.99,0,115.48,0,62.12,0,124.24,0,186.37,0,60.92,0,121.84,0,182.76,0,33.9,0,67.8,0,101.7,0,3.25,0,6.5.23,9.55-1.21,8.15-3.82,7.47-12.16,7.47-19.71,0-8.87-.27-17.19-6.14-24.52s-12.36-13.8-18.43-20.66c-10.39-11.74-20.79-23.49-31.18-35.23-5.52-6.24-11.05-12.48-16.57-18.72-2.88-3.26-7.64,1.53-4.77,4.77,15.92,17.98,31.83,35.97,47.75,53.95,5.95,6.73,12.63,13.25,18.13,20.34s4.47,16.23,4.47,24.76c0,4.67-.64,8.94-6.39,9.47-7.63.7-15.67,0-23.33,0-18.26,0-36.52,0-54.78,0-56.5,0-113,0-169.5,0-62.69,0-125.37,0-188.06,0-45.51,0-91.02,0-136.52,0-8.93,0-17.93.34-26.86,0-2.45-.09-4.77-.66-6.16-3.03-1.46-2.49-.84-6.43-.84-9.17,0-2.97-.09-5.97,0-8.94.35-11.25,10.6-19.86,17.7-27.88,9.97-11.27,19.94-22.53,29.92-33.8,4.58-5.17,9.15-10.34,13.73-15.51,2.58-2.91,6.06-5.87,8.13-9.18,1.66-2.66-.07,2.03-1.48,0,.05.07.55-.02.64,0,1.03.29,2.58,0,3.64,0h472.19c4.34,0,4.35-6.75,0-6.75Z" fill="#231815"></path><path class="a13992" d="m115.03,603.64c74.8,0,149.61,0,224.41,0s144.57,0,216.86,0c42.89,0,85.78,0,128.67,0,4.34,0,4.35-6.75,0-6.75-74.8,0-149.61,0-224.41,0s-144.57,0-216.86,0c-42.89,0-85.78,0-128.67,0-4.34,0-4.35,6.75,0,6.75h0Z" fill="#231815"></path><g><path class="a13992" d="m147.08,581.85c1.87-1.74,4.99-3.75,6.33-5.89-.03.04,2.6-2.73.22-1.37.07-.04.29.02.36,0,1.11-.33,2.85,0,4,0h43.46c4.34,0,4.35-6.75,0-6.75h-44.87c-.95,0-2.05-.15-3,0-4.1.67-8.3,6.47-11.27,9.24-3.19,2.96,1.59,7.73,4.77,4.77h0Z" fill="#231815"></path><path class="a13992" d="m220.66,581.85c1.87-1.74,4.99-3.75,6.33-5.89-.03.04,2.6-2.73.22-1.37.07-.04.29.02.36,0,1.11-.33,2.85,0,4,0h43.46c4.34,0,4.35-6.75,0-6.75h-44.87c-.95,0-2.05-.15-3,0-4.1.67-8.3,6.47-11.27,9.24-3.19,2.96,1.59,7.73,4.77,4.77h0Z" fill="#231815"></path><path class="a13992" d="m657.69,577.08c-3.05-2.84-7.07-8.51-11.25-9.24-.86-.15-1.89,0-2.76,0-5.41,0-10.82,0-16.22,0-9.63,0-19.26,0-28.9,0-4.34,0-4.35,6.75,0,6.75,8.98,0,17.95,0,26.93,0h16.23c1.25,0,3.1-.36,4.3,0,.53.16-.6-.52-.06.78.83,1.99,5.41,5.03,6.97,6.48,3.18,2.96,7.96-1.81,4.77-4.77h0Z" fill="#231815"></path><path class="a13992" d="m584.12,577.08c-3.05-2.84-7.07-8.51-11.25-9.24-.86-.15-1.89,0-2.76,0h-16.22c-9.63,0-19.26,0-28.9,0-4.34,0-4.35,6.75,0,6.75,8.98,0,17.95,0,26.93,0,5.41,0,10.82,0,16.23,0,1.25,0,3.1-.36,4.3,0,.53.16-.6-.52-.06.78.83,1.99,5.41,5.03,6.97,6.48,3.18,2.96,7.96-1.81,4.77-4.77h0Z" fill="#231815"></path><path class="a13992" d="m510.54,577.08c-3.37-3.14-7.28-8.85-12.06-9.24-2.97-.24-6.06,0-9.04,0-9.67,0-19.34,0-29.01,0s-18.66,0-27.98,0c-29.14,0-58.27,0-87.41,0h-30.57c-4.04,0-8.09-.09-12.12,0-5.43.13-9.13,5.74-12.9,9.24-3.19,2.96,1.59,7.73,4.77,4.77l5.07-4.71c.36-.34,3.62-3.76,1.48-2.55.4-.23,1.54,0,1.99,0h39.08c8.83,0,17.66,0,26.5,0,28.45,0,56.9,0,85.35,0h29.03c4.43,0,8.86,0,13.29,0,.8,0,2.27-.29,3.04,0,.06.02.15-.02.22,0-1.86-.69-.16.96.17,1.37,1.75,2.14,4.32,4.02,6.33,5.89,3.18,2.96,7.96-1.81,4.77-4.77h0Z" fill="#231815"></path></g><g><path class="a13992" d="m172.6,554.35c1.54-1.6,5.36-4.15,5.99-6.19-.04.13.91-1.83-.32-1.07.07-.04.22.03.29,0,.91-.37,2.85,0,3.8,0h38.92c4.34,0,4.35-6.75,0-6.75h-40.35c-.87,0-1.87-.14-2.73,0-3.98.67-7.7,6.47-10.38,9.24-3.02,3.12,1.75,7.9,4.77,4.77h0Z" fill="#231815"></path><path class="a13992" d="m238.82,554.35c1.54-1.6,5.36-4.15,5.99-6.19-.04.13.91-1.83-.32-1.07.07-.04.22.03.29,0,.91-.37,2.85,0,3.8,0h38.92c4.34,0,4.35-6.75,0-6.75h-40.35c-.87,0-1.87-.14-2.73,0-3.98.67-7.7,6.47-10.38,9.24-3.02,3.12,1.75,7.9,4.77,4.77h0Z" fill="#231815"></path><path class="a13992" d="m305.04,554.35c1.54-1.6,5.36-4.15,5.99-6.19-.04.13.91-1.83-.32-1.07.07-.04.22.03.29,0,.91-.37,2.85,0,3.8,0h38.92c4.34,0,4.35-6.75,0-6.75h-40.35c-.87,0-1.87-.14-2.73,0-3.98.67-7.7,6.47-10.38,9.24-3.02,3.12,1.75,7.9,4.77,4.77h0Z" fill="#231815"></path><path class="a13992" d="m371.26,554.35c1.54-1.6,5.36-4.15,5.99-6.19-.04.13.91-1.83-.32-1.07.07-.04.22.03.29,0,.91-.37,2.85,0,3.8,0h38.92c4.34,0,4.35-6.75,0-6.75h-40.35c-.87,0-1.87-.14-2.73,0-3.98.67-7.7,6.47-10.38,9.24-3.02,3.12,1.75,7.9,4.77,4.77h0Z" fill="#231815"></path><path class="a13992" d="m632.18,549.58c-2.69-2.78-6.4-8.56-10.37-9.24-.78-.13-1.71,0-2.5,0-4.87,0-9.74,0-14.6,0-8.67,0-17.33,0-26,0-4.34,0-4.35,6.75,0,6.75,8.01,0,16.02,0,24.03,0,4.86,0,9.72,0,14.58,0,1.07,0,2.98-.36,4.01,0s-.82.18-.59.39c2.34,2.13,4.45,4.6,6.65,6.87,3.03,3.13,7.8-1.65,4.77-4.77h0Z" fill="#231815"></path><path class="a13992" d="m565.96,549.58c-2.69-2.78-6.4-8.56-10.37-9.24-.78-.13-1.71,0-2.5,0h-14.6c-8.67,0-17.33,0-26,0-4.34,0-4.35,6.75,0,6.75,8.01,0,16.02,0,24.03,0h14.58c1.07,0,2.98-.36,4.01,0s-.82.18-.59.39c2.34,2.13,4.45,4.6,6.65,6.87,3.03,3.13,7.8-1.65,4.77-4.77h0Z" fill="#231815"></path><path class="a13992" d="m499.73,549.58c-2.69-2.78-6.4-8.56-10.37-9.24-.78-.13-1.71,0-2.5,0-4.87,0-9.74,0-14.6,0-8.67,0-17.33,0-26,0-4.34,0-4.35,6.75,0,6.75,8.01,0,16.02,0,24.03,0h14.58c1.07,0,2.98-.36,4.01,0s-.82.18-.59.39c2.34,2.13,4.45,4.6,6.65,6.87,3.03,3.13,7.8-1.65,4.77-4.77h0Z" fill="#231815"></path><path class="a13992" d="m433.51,549.58c-2.69-2.78-6.4-8.56-10.37-9.24-.78-.13-1.71,0-2.5,0h-14.6c-8.67,0-17.33,0-26,0-4.34,0-4.35,6.75,0,6.75,8.01,0,16.02,0,24.03,0,4.86,0,9.72,0,14.58,0,1.07,0,2.98-.36,4.01,0s-.82.18-.59.39c2.34,2.13,4.45,4.6,6.65,6.87,3.03,3.13,7.8-1.65,4.77-4.77h0Z" fill="#231815"></path></g><g><path class="a13992" d="m190.15,532.37c8.99,0,17.98,0,26.97,0,4.34,0,4.35-6.75,0-6.75-8.99,0-17.98,0-26.97,0-4.34,0-4.35,6.75,0,6.75h0Z" fill="#231815"></path><path class="a13992" d="m246.25,532.37c8.99,0,17.98,0,26.97,0,4.34,0,4.35-6.75,0-6.75-8.99,0-17.98,0-26.97,0-4.34,0-4.35,6.75,0,6.75h0Z" fill="#231815"></path><path class="a13992" d="m302.36,532.37c8.99,0,17.98,0,26.97,0,4.34,0,4.35-6.75,0-6.75-8.99,0-17.98,0-26.97,0-4.34,0-4.35,6.75,0,6.75h0Z" fill="#231815"></path><path class="a13992" d="m358.46,532.37c8.99,0,17.98,0,26.97,0,4.34,0,4.35-6.75,0-6.75-8.99,0-17.98,0-26.97,0-4.34,0-4.35,6.75,0,6.75h0Z" fill="#231815"></path><path class="a13992" d="m414.57,532.37c8.99,0,17.98,0,26.97,0,4.34,0,4.35-6.75,0-6.75-8.99,0-17.98,0-26.97,0-4.34,0-4.35,6.75,0,6.75h0Z" fill="#231815"></path><path class="a13992" d="m470.67,532.37c8.99,0,17.98,0,26.97,0,4.34,0,4.35-6.75,0-6.75-8.99,0-17.98,0-26.97,0-4.34,0-4.35,6.75,0,6.75h0Z" fill="#231815"></path><path class="a13992" d="m526.78,532.37c8.99,0,17.98,0,26.97,0,4.34,0,4.35-6.75,0-6.75-8.99,0-17.98,0-26.97,0-4.34,0-4.35,6.75,0,6.75h0Z" fill="#231815"></path><path class="a13992" d="m582.88,532.37c8.99,0,17.98,0,26.97,0,4.34,0,4.35-6.75,0-6.75-8.99,0-17.98,0-26.97,0-4.34,0-4.35,6.75,0,6.75h0Z" fill="#231815"></path></g></g></svg>