<svg xmlns:xlink="http://www.w3.org/1999/xlink" xmlns="http://www.w3.org/2000/svg" viewBox="0 0 799.99 799.99" width="799.99"  height="799.99" ><defs><style>.a13970{fill:#e8d575;}.a13971{fill:#dcdddd;}.a13972{fill:#231815;}</style></defs><g id="Y_K20"><path class="a13971" d="m514.6,203.49h-122.63l-29.99,161.35s.27,9.57,4.08,18.78c3.81,9.2-5.49,18.49,0,23.98,5.49,5.49,6.96,19.73,6.96,19.73l278.94,43.26,13.45-10.69,40.36-234.37-191.17-22.04Zm133.77,231.91c-5.38,20.63-19.73,17.19-19.73,17.19,0,0-220.64-32.44-238.58-36.03s-14.85-21.12-14.85-21.12l6.39-28.59s21.92-126.08,27.91-139.53,14.64-12.19,14.64-12.19c0,0,219.74,22.06,238.58,25.65,18.84,3.59,14.19,19.73,14.19,19.73,0,0-23.16,154.27-28.54,174.9Z" fill="#DCDDDD"></path><polygon class="a13971" points="665.41 459.9 574.57 540.5 531.14 530.93 545.86 516.04 583.41 523.16 644.51 466.15 665.41 459.9" fill="#DCDDDD"></polygon><path class="a13971" d="m621.95,473.39l-41.6,38.37-42.22-4.28-19.49,19.03-172.64-35.72-4.26-13.8s-3.67,2.33,11.76-6.41c15.44-8.74,46.49-27.37,46.49-27.37l221.96,30.17Z" fill="#DCDDDD"></path><path class="a13970" d="m158.48,354.7s-16.89-1.49-23.18-14.06c-6.29-12.58.35-59.05,20.27-78.97,19.92-19.92,53.11-18.87,71.28-8.39,18.17,10.48,17.47,23.76,17.47,23.76,0,0-5.64,24.9-33.57,28.17l11.21-20.49s6.28.7,8.38-6.99c2.1-7.69-11.88-9.08-15.37-5.59-3.49,3.49-3.77,17.56-12.76,26.56-8.99,8.99-21.48,14.88-21.48,14.88,0,0-13.98-2.3-19.57,1.19" style="" fill="#E8D575"></path><path class="a13971" d="m326.45,543.01l-19.33-5.28v42.89s9.66-1.99,9.66,15.98-3.33,48.17-3.33,48.17h295.51c59.16,0,107.12-47.96,107.12-107.12v-37.46l-112.46,101.35-277.18-58.54Z" fill="#DCDDDD"></path><path class="a13970" d="m643.22,254.69l-203.91-21.94c-6.5-.7-12.46,3.86-13.79,10.55l-26.86,145.57c-1.62,7.61,3.32,15.05,10.7,16.13l205.12,29.91c6.81.99,13.15-3.84,14.33-10.93l25.68-153.7c1.28-7.63-3.9-14.8-11.27-15.59Zm-88.3,133.65c-25.12,10.47-36.28,8.1-36.28,8.1l-28.03-4.71s-23.82-9.59-30.14-20.69-19.06-19.21-15.81-40.13l142.14,17.62s-6.75,29.33-31.87,39.81Z" style="" fill="#E8D575"></path></g><g id="_レイヤー_1"><path class="a13972" d="m132.21,294.45c5.02-25.83,24.67-48.73,50.98-54.16,13.24-2.73,27.37-.78,39.58,4.94,12.65,5.93,25.47,16.63,29.21,30.58,1.12,4.19,7.64,2.41,6.51-1.79-4.06-15.16-17.3-27.13-30.97-33.96-13.32-6.65-28.48-9.17-43.2-6.81-29.75,4.76-53,30.42-58.62,59.41-.82,4.24,5.68,6.06,6.51,1.79h0Z" fill="#231815"></path><path class="a13972" d="m225.2,322.42c0,3.48,0,6.95.01,10.43,0,4.34,6.76,4.35,6.75,0,0-3.48,0-6.95-.01-10.43,0-4.34-6.76-4.35-6.75,0h0Z" fill="#231815"></path><path class="a13972" d="m133.6,403.55c10.65-9.63,26.84-2.96,35.66,5.91,10.57,10.62,16.57,24.83,26.11,36.29,17.61,21.16,47.34,30.59,73.71,22.16,14.72-4.7,27.23-14.09,36.41-26.42l-5.3.68c10.26,8.88,23.25,20.62,22.85,35.43-.42,15.63-16.33,25.9-28.75,32.27-27.85,14.28-61.48,14.78-89.53.81-15.01-7.47-28.07-18.47-38.05-31.94-2.56-3.45-8.42-.09-5.83,3.41,19.96,26.94,51.15,44.76,84.98,45.55,17.65.41,35.32-3.69,51.08-11.62,13.65-6.87,29.5-17.64,32.38-33.84,3.32-18.62-11.52-33.73-24.36-44.84-1.78-1.54-3.94-1.14-5.3.68-17.76,23.84-50.04,33.12-77.2,20.23-13.89-6.59-23.23-17.47-31.38-30.19-7.2-11.23-14.29-23.51-26.12-30.47-11.35-6.67-25.84-8.18-36.14,1.13-3.23,2.92,1.56,7.68,4.77,4.77h0Z" fill="#231815"></path><path class="a13972" d="m121.48,417.76c-9.07,36.98,2.63,73.79,9.03,110.13,5.39,30.61,7.12,66.91-13.36,92.67-1.44,1.81-1.25,5.09,1.49,5.64,50.14,10.1,104.31.22,147.05-28.2,4.8-3.19,9.54-6.5,14.3-9.75,5.23-3.57,10.31-7.86,17.06-7.48,10.06.58,17.17,9.75,16.89,19.49-.11,3.86-.64,7.75-.98,11.6-1.15,13.05-2.29,26.1-3.44,39.15-.38,4.33,6.37,4.3,6.75,0,1.05-11.9,2.09-23.81,3.14-35.71,1.15-13.06,3.38-26.89-8.54-36.12-7.42-5.74-17.4-6.75-25.75-2.4-5.26,2.74-10.06,6.68-14.94,10.01-17.82,12.15-36.55,22.15-57.3,28.41-29.92,9.02-61.8,10.67-92.45,4.5l1.49,5.64c20.18-25.38,20.91-59.19,16.57-89.94-5.41-38.34-20.06-76.92-10.51-115.84,1.03-4.22-5.47-6.02-6.51-1.79h0Z" fill="#231815"></path><path class="a13972" d="m378.46,202.58c-3.69,19.94-7.38,39.89-11.07,59.83-5.85,31.62-11.7,63.23-17.55,94.85-1.35,7.32-2.71,14.64-4.06,21.95-.79,4.25,5.72,6.07,6.51,1.79,3.69-19.94,7.38-39.89,11.07-59.83,5.85-31.62,11.7-63.23,17.55-94.85,1.35-7.32,2.71-14.64,4.06-21.95.79-4.25-5.72-6.07-6.51-1.79h0Z" fill="#231815"></path><path class="a13972" d="m510.68,197.8c23.18,2.65,46.37,5.3,69.55,7.94,36.78,4.2,73.56,8.4,110.34,12.6,8.5.97,17,1.94,25.51,2.91l-3.25-4.27c-2.93,17.04-5.86,34.09-8.79,51.13-6,34.91-12.01,69.82-18.01,104.73-4.78,27.8-9.56,55.6-14.34,83.41l-1.55,9c-.05.28-.48,1.62-.32,1.87-.17-.26,1.7-1.4.26-.8-3,1.24-6.17,5.05-8.66,7.08l-16.64,13.61c-13.84,11.32-27.68,22.63-41.52,33.95-9.36,7.66-19.26,14.95-28.23,23.08-.48.44-1.02.83-1.52,1.24l3.28-.87c-72.3-13.24-144.61-26.47-216.91-39.71-4.25-.78-6.07,5.73-1.79,6.51,43.64,7.99,87.29,15.98,130.93,23.97,22.15,4.05,44.29,8.11,66.44,12.16,5.21.95,10.42,1.91,15.63,2.86,2.81.51,4.8,1.33,7.24-.2,1.01-.63,1.92-1.57,2.84-2.32,28.42-23.23,56.84-46.47,85.25-69.7,2.79-2.28,6.66-4.53,8.96-7.33,1.31-1.59,1.32-3.94,1.66-5.91,2.05-11.95,4.11-23.89,6.16-35.84,7.09-41.23,14.18-82.46,21.27-123.69,4.88-28.35,9.96-56.68,14.63-85.07.07-.45.16-.91.23-1.36.4-2.34-.93-4.01-3.25-4.27-23.18-2.65-46.37-5.3-69.55-7.94-36.78-4.2-73.56-8.4-110.34-12.6-8.5-.97-17-1.94-25.51-2.91-4.31-.49-4.27,6.26,0,6.75h0Z" fill="#231815"></path><path class="a13972" d="m252.8,352.23c-1.1,18.87-13.46,35.99-32.11,40.77-10.12,2.6-20.82.27-31.01-.93-1.14-.13-2.37.74-2.91,1.67-3.78,6.52-7.56,13.03-11.34,19.55-2.18,3.76,3.65,7.17,5.83,3.41,3.78-6.52,7.56-13.03,11.34-19.55l-2.91,1.67c13.2,1.56,26.02,3.86,38.82-1.31,18.53-7.48,29.91-25.68,31.05-45.28.25-4.34-6.5-4.32-6.75,0h0Z" fill="#231815"></path><path class="a13972" d="m218.59,279.7c-.94,11.86-8.62,22.77-19.94,26.8-4.06,1.45-2.31,7.97,1.79,6.51,14.33-5.1,23.7-18.29,24.9-33.31.34-4.33-6.41-4.31-6.75,0h0Z" fill="#231815"></path><path class="a13972" d="m199.84,314.18c19.62,3.77,39.39-5.51,49.75-22.47l-6.17-.81c2.57,6.72,1.17,13.86-4.2,18.76-1.94,1.77-.84,4.94,1.49,5.64,14.14,4.28,26.71-6.02,27.86-20.16.35-4.33-6.4-4.31-6.75,0-.81,9.92-9.62,16.59-19.32,13.65l1.49,5.64c6.98-6.37,9.31-16.51,5.93-25.33-1.01-2.65-4.56-3.44-6.17-.81-8.69,14.23-25.54,22.56-42.12,19.37-4.24-.82-6.06,5.69-1.79,6.51h0Z" fill="#231815"></path><path class="a13972" d="m123.12,304.32c-2.27,14.33-4.52,29.48,1.3,43.3,4.71,11.18,15.37,20.16,28.05,18.77,4.27-.47,4.32-7.22,0-6.75-11.56,1.27-19.97-7.76-23.1-18.12-3.49-11.54-1.59-23.76.26-35.41.67-4.25-5.83-6.08-6.51-1.79h0Z" fill="#231815"></path><path class="a13972" d="m663.46,237.58c-24.39-2.62-48.78-5.25-73.17-7.87-41.39-4.45-82.78-8.91-124.18-13.36-12.43-1.34-24.86-2.67-37.29-4.01-2.88-.31-5.72-.77-8.61-.38-8.56,1.16-14.18,8.04-15.75,16.16-6.45,33.31-12.31,66.74-18.47,100.1-3.33,18.03-6.65,36.06-9.98,54.09-2.18,11.82-7.21,26.61,4.62,35.14,6.48,4.67,17.26,4.58,24.85,5.68,16.29,2.38,32.58,4.75,48.88,7.13,41.78,6.09,83.57,12.19,125.35,18.28,13.69,2,27.38,3.99,41.07,5.99,2.59.38,5.18.79,7.78,1.13,10.24,1.36,19.18-5.01,21.24-15.19,5.86-28.99,9.77-58.51,14.65-87.68,5.14-30.74,10.71-61.44,15.41-92.25,1.62-10.64-4.38-21.12-15.51-22.84-4.25-.66-6.08,5.84-1.79,6.51,15.74,2.44,9.88,20.02,8.14,30.45-2.89,17.31-5.78,34.63-8.68,51.94-5.88,35.19-11.76,70.38-17.64,105.57-.4,2.41-.7,4.86-1.24,7.24-1.64,7.29-7.87,10.47-14.72,9.47-10.18-1.48-20.36-2.97-30.54-4.45-39.17-5.71-78.35-11.42-117.52-17.14-29.16-4.25-58.32-8.5-87.48-12.76-5.02-.73-9.73-2-12.19-7.18-2.06-4.33-.86-8.73-.05-13.14,2.63-14.24,5.25-28.47,7.88-42.71,6.84-37.05,13.67-74.11,20.51-111.16,1.76-9.54,2.38-22.74,15.71-21.69,8.56.68,17.11,1.84,25.64,2.76,38.21,4.11,76.42,8.22,114.63,12.33,31.15,3.35,62.31,6.7,93.46,10.05,1.65.18,3.31.36,4.96.53,4.31.46,4.28-6.29,0-6.75Z" fill="#231815"></path><path class="a13972" d="m628.39,471.05c-31.74-5.33-63.82-8.92-95.68-13.52-32.28-4.66-64.54-9.5-96.83-14.05-17.84-2.51-35.67-5.08-53.4-8.29-4.25-.77-6.07,5.74-1.79,6.51,31.44,5.69,63.2,9.64,94.8,14.34,31.95,4.76,63.93,9.63,95.95,13.91,18.4,2.46,36.85,4.53,55.16,7.61,4.25.71,6.08-5.79,1.79-6.51h0Z" fill="#231815"></path><path class="a13972" d="m604.52,489.75c-15.96-2.38-31.93-4.68-47.89-7.05-7.9-1.17-15.8-2.36-23.7-3.59-7.94-1.23-16-3.06-24.01-3.55-15.92-.98-31.25-4.66-46.97-6.99-16.09-2.38-32.2-4.57-48.29-6.97-17.44-2.6-34.9-5.09-52.4-7.32-4.3-.55-4.26,6.21,0,6.75,31.41,4.01,62.73,8.77,94.07,13.34,15.35,2.24,30.42,5.75,45.87,7.18s32,4.41,47.97,6.8c17.84,2.67,35.7,5.24,53.55,7.9,4.25.63,6.08-5.87,1.79-6.51h0Z" fill="#231815"></path><path class="a13972" d="m582.59,508.73c-39.57-6.78-79.37-12.1-119.16-17.37-20.71-2.74-41.39-5.47-62.01-8.85-19.85-3.26-39.69-6.61-59.68-8.89-4.31-.49-4.27,6.26,0,6.75,20.04,2.29,39.91,5.71,59.8,8.97,19.93,3.26,39.94,5.87,59.96,8.52,39.84,5.27,79.67,10.59,119.29,17.38,4.25.73,6.07-5.78,1.79-6.51h0Z" fill="#231815"></path><path class="a13972" d="m350.26,476.31c17.76-10.06,35.53-20.12,53.29-30.17,3.78-2.14.38-7.97-3.41-5.83-17.76,10.06-35.53,20.12-53.29,30.17-3.78,2.14-.38,7.97,3.41,5.83h0Z" fill="#231815"></path><path class="a13972" d="m382.33,482.45c17.76-10.06,35.53-20.12,53.29-30.17,3.78-2.14.38-7.97-3.41-5.83-17.76,10.06-35.53,20.12-53.29,30.17-3.78,2.14-.38,7.97,3.41,5.83h0Z" fill="#231815"></path><path class="a13972" d="m414.41,488.59c17.76-10.06,35.53-20.12,53.29-30.17,3.78-2.14.38-7.97-3.41-5.83-17.76,10.06-35.53,20.12-53.29,30.17-3.78,2.14-.38,7.97,3.41,5.83h0Z" fill="#231815"></path><path class="a13972" d="m449.05,492.3c17.76-10.06,35.53-20.12,53.29-30.17,3.78-2.14.38-7.97-3.41-5.83-17.76,10.06-35.53,20.12-53.29,30.17-3.78,2.14-.38,7.97,3.41,5.83h0Z" fill="#231815"></path><path class="a13972" d="m486.56,496.35c17.76-10.06,35.53-20.12,53.29-30.17,3.78-2.14.38-7.97-3.41-5.83-17.76,10.06-35.53,20.12-53.29,30.17-3.78,2.14-.38,7.97,3.41,5.83h0Z" fill="#231815"></path><path class="a13972" d="m518.93,503.68c17.76-10.06,35.53-20.12,53.29-30.17,3.78-2.14.38-7.97-3.41-5.83-17.76,10.06-35.53,20.12-53.29,30.17-3.78,2.14-.38,7.97,3.41,5.83h0Z" fill="#231815"></path><path class="a13972" d="m345.1,494.05c24.86,4.38,49.73,8.76,74.59,13.15,11.64,2.05,23.36,4.73,35.11,6.05,9.05,1.02,18.61-1.83,21.44-11.38,1.23-4.17-5.28-5.96-6.51-1.79-3.36,11.34-20.6,5.48-28.62,4.07-10.47-1.84-20.94-3.69-31.41-5.53-20.94-3.69-41.88-7.38-62.82-11.07-4.25-.75-6.07,5.76-1.79,6.51h0Z" fill="#231815"></path><path class="a13972" d="m492.8,499.72c-3.79,4.17-7.58,8.35-11.37,12.52-1.66,1.83-1.07,4.98,1.49,5.64,11.01,2.85,22.02,5.69,33.04,8.54,4.21,1.09,6-5.42,1.79-6.51-11.01-2.85-22.02-5.69-33.04-8.54l1.49,5.64c3.79-4.17,7.58-8.35,11.37-12.52,2.92-3.21-1.84-8-4.77-4.77h0Z" fill="#231815"></path><path class="a13972" d="m535.75,505.1c-3.18,2.85-6.37,5.7-9.55,8.55s1.54,7.66,4.77,4.77,6.37-5.7,9.55-8.55c3.24-2.9-1.54-7.66-4.77-4.77h0Z" fill="#231815"></path><path class="a13972" d="m233.79,358.26c-8.15-4.53-16.3-9.06-24.45-13.59-2.32-1.29-4.94.36-5.08,2.91-.68,12.27-1.57,24.52-2.64,36.76-.38,4.33,6.37,4.3,6.75,0,1.08-12.24,1.96-24.49,2.64-36.76l-5.08,2.91c8.15,4.53,16.3,9.06,24.45,13.59,3.8,2.11,7.21-3.72,3.41-5.83h0Z" fill="#231815"></path><path class="a13972" d="m310.91,438.54c-.3-5.29-.6-10.59-.9-15.88-.23-4.05-1.43-9.21-.3-13.14,1.31-4.55,6.71-3.53,9.34-.92,3.1,3.07,3.52,8.24,3.77,12.33.24,3.74,5.49,4.66,6.63.9s2.37-7.86,3.56-11.79c1.04-3.41,1.98-8.66,5.83-9.88,5.29-1.67,7.93,4.49,7.98,8.72s-1.68,8.4-3.19,12.32,4.96,5.81,6.51,1.79c2.27-5.91,4.44-12.22,2.94-18.61-1.3-5.55-5.46-10.31-11.28-11.16-13.62-1.98-16.1,17.72-18.85,26.81l6.63.9c-.64-10.13-5.98-24.55-19.08-20.87-5.32,1.49-7.57,6.42-7.77,11.58-.34,8.86.93,18.05,1.43,26.9.24,4.32,7,4.35,6.75,0h0Z" fill="#231815"></path><path class="a13972" d="m357.14,417.05c1.47,8.71-3.79,17.66-12.05,20.7-4.04,1.49-2.29,8.01,1.79,6.51,11.98-4.41,18.89-16.43,16.77-29-.72-4.27-7.23-2.46-6.51,1.79h0Z" fill="#231815"></path><path class="a13972" d="m356.27,435.85c-2.33,15.12-14.07,26.94-29.18,29.36-4.28.69-2.46,7.19,1.79,6.51,17.15-2.75,31.25-16.91,33.9-34.08.66-4.25-5.85-6.08-6.51-1.79h0Z" fill="#231815"></path><path class="a13972" d="m465.34,262.25c-.34,3.46-.69,6.93-1.03,10.39-.18,1.82,1.68,3.38,3.38,3.38,1.98,0,3.19-1.55,3.38-3.38.34-3.46.69-6.93,1.03-10.39.18-1.82-1.68-3.38-3.38-3.38-1.98,0-3.19,1.55-3.38,3.38h0Z" fill="#231815"></path><path class="a13972" d="m463.44,281.37l-1.03,10.39c-.18,1.82,1.68,3.38,3.38,3.38,1.98,0,3.19-1.55,3.38-3.38l1.03-10.39c.18-1.82-1.68-3.38-3.38-3.38-1.98,0-3.19,1.55-3.38,3.38h0Z" fill="#231815"></path><path class="a13972" d="m576.2,276.41c-.34,3.46-.69,6.93-1.03,10.39-.18,1.82,1.68,3.38,3.38,3.38,1.98,0,3.19-1.55,3.38-3.38.34-3.46.69-6.93,1.03-10.39.18-1.82-1.68-3.38-3.38-3.38-1.98,0-3.19,1.55-3.38,3.38h0Z" fill="#231815"></path><path class="a13972" d="m574.3,295.53l-1.03,10.39c-.18,1.82,1.68,3.38,3.38,3.38,1.98,0,3.19-1.55,3.38-3.38l1.03-10.39c.18-1.82-1.68-3.38-3.38-3.38-1.98,0-3.19,1.55-3.38,3.38h0Z" fill="#231815"></path><path class="a13972" d="m545.63,346.64c9.21,1.16,18.42,2.33,27.62,3.53,4.29.56,4.25-6.2,0-6.75-9.21-1.2-18.41-2.37-27.62-3.53-4.3-.54-4.26,6.22,0,6.75h0Z" fill="#231815"></path><path class="a13972" d="m512.51,342.4c6.78.87,13.56,1.74,20.34,2.61,4.3.55,4.26-6.2,0-6.75-6.78-.87-13.56-1.74-20.34-2.61-4.3-.55-4.26,6.2,0,6.75h0Z" fill="#231815"></path><path class="a13972" d="m476.75,337.83c6.72.86,13.44,1.71,20.16,2.57,4.3.55,4.26-6.21,0-6.75-6.72-.86-13.44-1.71-20.16-2.57-4.3-.55-4.26,6.21,0,6.75h0Z" fill="#231815"></path><path class="a13972" d="m448.83,334.28c3.88.49,7.75.99,11.63,1.48,1.82.23,3.36-1.72,3.38-3.38.02-2.01-1.57-3.15-3.38-3.38-3.88-.49-7.75-.99-11.63-1.48-1.82-.23-3.36,1.72-3.38,3.38-.02,2.01,1.57,3.15,3.38,3.38h0Z" fill="#231815"></path><path class="a13972" d="m447.91,344.68c-.7-2.83-1.15-5.66-1.29-8.57-.21-4.32-6.97-4.35-6.75,0,.17,3.5.69,6.97,1.53,10.37,1.05,4.21,7.56,2.43,6.51-1.79h0Z" fill="#231815"></path><path class="a13972" d="m463.22,371.28c-5.56-5.21-10.05-11.28-12.49-18.55-1.37-4.1-7.9-2.34-6.51,1.79,2.81,8.37,7.8,15.51,14.23,21.53,3.17,2.97,7.95-1.8,4.77-4.77h0Z" fill="#231815"></path><path class="a13972" d="m491.51,387.17c-5.66-1.95-11.08-4.33-16.29-7.27-3.79-2.14-7.2,3.69-3.41,5.83,5.71,3.22,11.71,5.82,17.9,7.95,4.12,1.42,5.88-5.1,1.79-6.51h0Z" fill="#231815"></path><path class="a13972" d="m526,392.06c-5.56.29-11.08.09-16.61-.58-4.3-.52-4.26,6.23,0,6.75,5.53.67,11.05.87,16.61.58,4.32-.23,4.35-6.98,0-6.75h0Z" fill="#231815"></path><path class="a13972" d="m561.94,380.59c-5.23,3.36-10.75,5.95-16.65,7.88-4.11,1.35-2.35,7.87,1.79,6.51,6.43-2.11,12.57-4.9,18.26-8.56,3.64-2.34.26-8.19-3.41-5.83h0Z" fill="#231815"></path><path class="a13972" d="m578.8,362.86c-1.98,3.48-4.32,6.64-7.05,9.56-2.97,3.17,1.79,7.95,4.77,4.77s5.86-6.96,8.11-10.92-3.68-7.19-5.83-3.41h0Z" fill="#231815"></path><path class="a13972" d="m583.41,348.52c-.33,2.97-1.07,5.88-2.05,8.7-1.42,4.11,5.1,5.88,6.51,1.79,1.18-3.42,1.89-6.9,2.29-10.5.2-1.81-1.69-3.38-3.38-3.38-1.99,0-3.18,1.56-3.38,3.38h0Z" fill="#231815"></path><path class="a13972" d="m510.67,91.37H228.83c-1.82,0-3.38,1.55-3.38,3.38v108.73c0,1.82,1.55,3.38,3.38,3.38h80.49l-2.91-1.67c13.87,18.19,27.75,36.38,41.62,54.57,1.82,2.38,6.51,2.02,6.29-1.7-1.08-18.19-2.16-36.38-3.23-54.57l-3.38,3.38h162.97c1.82,0,3.38-1.55,3.38-3.38v-108.73c0-4.34-6.75-4.35-6.75,0v108.73l3.38-3.38h-162.97c-1.74,0-3.48,1.55-3.38,3.38,1.08,18.19,2.16,36.38,3.23,54.57l6.29-1.7c-13.17-17.27-26.35-34.54-39.52-51.82-1.51-1.98-2.62-4.1-5.27-4.42-3.11-.38-6.51,0-9.63,0h-70.59l3.38,3.38v-108.73l-3.38,3.38h281.85c4.34,0,4.35-6.75,0-6.75Z" fill="#231815"></path><path class="a13972" d="m306.22,540.98c21.98,4.47,43.97,8.93,65.95,13.4,43.5,8.84,87,17.68,130.5,26.52,31.29,6.36,62.58,12.72,93.88,19.08,1.97.4,4.11,1.13,6.12,1.24,3.06.18,5.08-2.33,7.29-4.23,12.36-10.61,24.72-21.21,37.08-31.82,27.95-23.99,55.91-47.98,83.86-71.97.55-.48,1.11-.95,1.66-1.43,3.3-2.83-1.49-7.59-4.77-4.77-36.99,31.74-73.98,63.49-110.97,95.23-5.19,4.45-10.38,8.9-15.56,13.36l3.28-.87c-33.35-6.78-66.71-13.56-100.06-20.33-53.21-10.81-106.42-21.63-159.62-32.44-12.27-2.49-24.55-4.99-36.82-7.48-4.24-.86-6.05,5.64-1.79,6.51h0Z" fill="#231815"></path><path class="a13972" d="m180.53,317.37c-6.55-.02-11.75-2.98-17.44,1.77-4.2,3.5-6.74,9.05-7.54,14.37-1.65,11.03,6.46,22.28,18.38,18.91,4.17-1.18,2.4-7.69-1.79-6.51-8.87,2.51-11.34-7.82-9.22-14.36.95-2.92,2.76-6.61,5.66-8.06,3.49-1.75,8.18.62,11.96.63,4.34.01,4.35-6.74,0-6.75h0Z" fill="#231815"></path></g></svg>