<svg xmlns:xlink="http://www.w3.org/1999/xlink" xmlns="http://www.w3.org/2000/svg" viewBox="0 0 799.99 799.99" width="799.99"  height="799.99" ><defs><style>.a13940{fill:#e8d575;}.a13941{fill:#dcdddd;}.a13942{fill:#231815;}</style></defs><g id="Y_K20"><path class="a13940" d="m609.41,288.35c-49.24,6.42-172.32-26.76-245.11-32.5-72.78-5.74-112.4,34.64-112.4,34.64l-10.69,259.73,46.11,4.31,205.51,12.82s105.76,6.89,126.08,9.64c20.33,2.75,36.77,11.92,36.77,11.92l6.17-312.65s-3.21,5.67-52.45,12.09Zm25.07,261.87l-371.7-21.94,6.45-225.86s61.95-38.72,123.9-21.94c61.95,16.78,183.27,47.75,241.35,20.65v249.09Z" style="" fill="#E8D575"></path><path class="a13941" d="m198.96,560.47l-8.72,29.55-21.24,37.35,49.96,2.6,220.77,3.12,117.77,6.71,98.37-2.05s3.84-10.1-3.66-10.07c-7.49.03-23.54-.02-23.54-.02l-3.21-11.75-64.22-9.67s-13.65-10.07-21.41-11.16c-7.75-1.1-91.21-1.64-91.21-1.64l-249.67-32.97Z" fill="#DCDDDD"></path><polygon class="a13940" points="172.92 560.47 120.07 636.12 152.23 636.12 193.69 570.27 195.48 560.04 172.92 560.47" style="" fill="#E8D575"></polygon><path class="a13940" d="m676.49,603.79l-11.52-7.18-9.15,12.75s16.58,17.78,18.72,28.48c2.14,10.7-18.72,20.33-18.72,20.33l45.25-3.24s-3.36-38.1-24.58-51.14Z" style="" fill="#E8D575"></path><path class="a13940" d="m633.15,611.79s23.93-4.9,12.13-16.71-446.68-40.02-446.68-40.02l-3.13,4.97,256.64,31.9s80.48-2.32,96.15,4.66c15.67,6.98,12.97,9.64,12.97,9.64l70.48,3.52" style="" fill="#E8D575"></path><polygon class="a13941" points="471.32 109.2 656.85 204.64 656.85 109.2 471.32 109.2" fill="#DCDDDD"></polygon></g><g id="_レイヤー_1"><g><path class="a13942" d="m203.2,615.78c93.68.86,187.35,1.71,281.03,2.57,26.58.24,53.15.49,79.73.73,1.94.02,3.21-1.57,3.38-3.38,1.57-17.68-18.74-24.31-32.96-25.02-13.31-.67-26.76-.23-40.09-.31s-27.85-.18-41.77-.27c-56.03-.37-112.06-.74-168.09-1.1-31.5-.21-62.99-.41-94.49-.62l3.25,4.27c2.49-14.27,4.99-28.54,7.48-42.82l-3.25,2.48c74.88,4.67,149.76,9.34,224.64,14.02,37.44,2.34,74.88,4.67,112.32,7.01,18.27,1.14,36.56,2.1,54.82,3.49,16.65,1.27,33.38,3.29,49.29,8.57,31.6,10.47,59.38,37.73,59.23,72.79l3.38-3.38c-76.18-1.74-152.37-3.48-228.55-5.22-76.52-1.75-153.04-3.49-229.55-5.24-42.92-.98-85.83-1.96-128.75-2.94l2.91,5.08c19.65-29.17,39.3-58.34,58.95-87.5l-2.91,1.67c114.09,14.18,228.19,28.37,342.28,42.55,28.36,3.53,56.72,7.05,85.08,10.58,12.2,1.52,24.75,4.06,37.07,3.91,9.96-.12,19.85-3.06,26.02-11.34s7.23-18.56,7.61-28.3c.55-13.92.35-27.9.49-41.83l.85-85.49c.64-64.28,1.28-128.57,1.92-192.85.03-2.77-2.84-3.93-5.08-2.91-68.36,30.91-145.22,12.03-215.44-1.17-61.35-11.54-129.92-19.04-187.59,10.5-7.19,3.69-14.1,7.93-20.63,12.7-2.58,1.89-6.3,3.7-6.77,7.07-.33,2.33-.21,4.8-.32,7.15-.55,12.41-1.1,24.81-1.65,37.22-1.72,38.81-3.44,77.62-5.16,116.44-1.14,25.81-3.27,51.79-3.44,77.63,0,.4-.04.81-.05,1.21-.19,4.34,6.56,4.33,6.75,0,.94-21.23,1.88-42.45,2.82-63.68,1.73-38.99,3.46-77.98,5.18-116.96.65-14.58,1.29-29.16,1.94-43.74l.54-12.1c.04-.8-.16-2.12.13-2.88.05-.13-.05-.37.02-.49-.93,1.52,2.98-.5,2.14-.07,1.81-.92,3.48-2.54,5.16-3.69,54.46-37.25,124.8-32.72,186.75-22.01,68.4,11.83,140.35,32.21,209.19,11.72,8.15-2.43,16.08-5.48,23.83-8.98l-5.08-2.91c-.56,55.67-1.11,111.34-1.67,167.01-.28,27.83-.56,55.67-.83,83.5l-.42,41.75c-.12,12.41.76,25.34-1.19,37.64-1.81,11.38-7.6,20.62-19.64,22.67s-24.11-1-35.56-2.42c-27.7-3.44-55.4-6.89-83.1-10.33-55.4-6.89-110.8-13.77-166.2-20.66-61.99-7.71-123.99-15.41-185.98-23.12-1.19-.15-2.3.76-2.91,1.67-19.65,29.17-39.3,58.34-58.95,87.5-1.48,2.2.5,5.02,2.91,5.08,76.18,1.74,152.37,3.48,228.55,5.22,76.52,1.75,153.04,3.49,229.55,5.24,42.92.98,85.83,1.96,128.75,2.94,1.83.04,3.37-1.58,3.38-3.38.13-28.87-17.85-54.81-42.08-69.38-29.56-17.77-65.78-18.33-99.17-20.42-77.86-4.86-155.73-9.72-233.59-14.57-44.07-2.75-88.14-5.5-132.2-8.25-1.35-.08-3.01,1.1-3.25,2.48-2.49,14.27-4.99,28.54-7.48,42.82-.37,2.14.9,4.26,3.25,4.27,105.43.69,210.86,1.39,316.28,2.08,12.02.08,25.03-1.29,36.83,1.44,8.7,2.02,18.45,6.71,17.53,17.06l3.38-3.38c-93.68-.86-187.35-1.71-281.03-2.57-26.58-.24-53.15-.49-79.73-.73-4.34-.04-4.35,6.71,0,6.75h0Z" fill="#231815"></path><path class="a13942" d="m701.1,673.96c-76.18-1.74-152.37-3.48-228.55-5.22-76.52-1.75-153.04-3.49-229.55-5.24-42.92-.98-85.83-1.96-128.75-2.94l3.38,3.38v-19.16c0-4.34-6.75-4.35-6.75,0v19.16c0,1.86,1.55,3.33,3.38,3.38,76.18,1.74,152.37,3.48,228.55,5.22,76.52,1.75,153.04,3.49,229.55,5.24,42.92.98,85.83,1.96,128.75,2.94,4.35.1,4.34-6.65,0-6.75h0Z" fill="#231815"></path><path class="a13942" d="m266.15,528.28c.72-25.35,1.45-50.71,2.17-76.06,1.16-40.62,2.32-81.24,3.48-121.86.27-9.31.53-18.62.8-27.93l-1.67,2.91c13.21-8.22,28.25-14.13,43.1-18.54,14.3-4.24,29.11-6.89,44.05-7.14s29.05,2.73,43.44,6.58c51.31,13.69,103.94,26.26,157.18,28.64,25.89,1.16,53.55.15,77.47-10.83l-5.08-2.91v249.09l3.38-3.38c-12.3-.73-24.59-1.45-36.89-2.18-29.54-1.74-59.08-3.49-88.61-5.23-35.76-2.11-71.51-4.22-107.27-6.33-31.07-1.83-62.13-3.67-93.2-5.5-10.19-.6-20.38-1.2-30.56-1.8-4.74-.28-9.77-1.09-14.52-.86-.21.01-.43-.03-.64-.04-4.34-.26-4.32,6.49,0,6.75,12.3.73,24.59,1.45,36.89,2.18,29.54,1.74,59.08,3.49,88.61,5.23,35.76,2.11,71.51,4.22,107.27,6.33,31.07,1.83,62.13,3.67,93.2,5.5,10.19.6,20.38,1.2,30.56,1.8,4.74.28,9.77,1.09,14.52.86.21-.01.43.03.64.04,1.82.11,3.38-1.63,3.38-3.38v-249.09c0-2.75-2.82-3.95-5.08-2.91-23.17,10.63-50.46,11.06-75.45,9.84-30.24-1.47-60.24-6.53-89.82-12.78-13.94-2.95-27.81-6.22-41.63-9.7-12.31-3.1-24.52-6.84-36.91-9.61-30.51-6.81-62.64-1.69-91.53,9.33-8.88,3.39-17.6,7.3-25.93,11.9-2.77,1.53-5.32,2.48-5.67,5.91-.89,8.73-.51,17.79-.76,26.55-1.09,38.13-2.18,76.25-3.27,114.38-.79,27.57-2.41,55.27-2.37,82.86,0,.46-.03.92-.04,1.37-.12,4.35,6.63,4.34,6.75,0Z" fill="#231815"></path><path class="a13942" d="m217.6,282.94c8.92-26.69,33.74-46.85,61.77-49.89,4.27-.46,4.32-7.22,0-6.75-31.17,3.37-58.32,25.06-68.28,54.84-1.38,4.13,5.14,5.9,6.51,1.79h0Z" fill="#231815"></path><path class="a13942" d="m181.68,271.15c14.33-43.44,55.04-76.4,100.58-81.14,4.28-.45,4.32-7.2,0-6.75-48.67,5.07-91.75,39.58-107.09,86.1-1.36,4.13,5.15,5.91,6.51,1.79h0Z" fill="#231815"></path><path class="a13942" d="m131.22,256.75c19.64-59.89,75.97-105.43,138.72-111.86,4.28-.44,4.32-7.19,0-6.75-51.18,5.24-98.23,34.79-126.42,77.68-7.98,12.15-14.28,25.33-18.8,39.13-1.36,4.14,5.16,5.91,6.51,1.79h0Z" fill="#231815"></path><path class="a13942" d="m219.15,563.69c0,15.61,0,31.23,0,46.84h6.75v-1.28c0-4.34-6.75-4.35-6.75,0v1.28c0,4.34,6.75,4.35,6.75,0,0-15.61,0-31.23,0-46.84,0-4.34-6.75-4.35-6.75,0h0Z" fill="#231815"></path><path class="a13942" d="m248.52,570.27v39.49c0,4.34,6.75,4.35,6.75,0v-39.49c0-4.34-6.75-4.35-6.75,0h0Z" fill="#231815"></path><path class="a13942" d="m277.38,572.3v37.97c0,4.34,6.75,4.35,6.75,0v-37.97c0-4.34-6.75-4.35-6.75,0h0Z" fill="#231815"></path><path class="a13942" d="m305.23,575.34v35.95c0,4.34,6.75,4.35,6.75,0v-35.95c0-4.34-6.75-4.35-6.75,0h0Z" fill="#231815"></path><path class="a13942" d="m336.11,578.38c0,11.14,0,22.28,0,33.42,0,4.34,6.75,4.35,6.75,0,0-11.14,0-22.28,0-33.42,0-4.34-6.75-4.35-6.75,0h0Z" fill="#231815"></path><path class="a13942" d="m181.93,600.16c-5.6,8.31-10.88,16.81-15.84,25.51-1.31,2.31.38,4.95,2.91,5.08,16.65.87,33.31,1.74,49.96,2.6,4.34.23,4.33-6.52,0-6.75-16.65-.87-33.31-1.74-49.96-2.6l2.91,5.08c4.96-8.71,10.24-17.21,15.84-25.51,2.44-3.61-3.41-6.99-5.83-3.41h0Z" fill="#231815"></path><path class="a13942" d="m267.86,613.71c-3.06,5.89-6.12,11.79-9.18,17.68-1.16,2.24.26,5.08,2.91,5.08h178.14c1.46,0,2.89-1.05,3.25-2.48,1.52-5.89,3.04-11.79,4.56-17.68,1.08-4.21-5.42-6-6.51-1.79l-4.56,17.68,3.25-2.48h-178.14l2.91,5.08c3.06-5.89,6.12-11.79,9.18-17.68,2-3.85-3.82-7.27-5.83-3.41h0Z" fill="#231815"></path><path class="a13942" d="m560.76,638.91c-2.94-10.08,17.3-7.59,22.43-8.34l-4.15-4.15c-.66,4.33-1.32,8.66-1.98,12.99-.33,2.17.86,4.21,3.25,4.27,5.14.13,10.28.25,15.42.38,4.29.11,9.05.82,13.29.03,2.97-.55,5.44-2.08,6.63-4.94,1.37-3.27-.41-7.42,1.5-10.34,1.76-2.68-1.14-5.43-3.81-4.96-7.15,1.26-14.28,1.17-21.4-.22l2.48,3.25c.35-5.19.7-10.37,1.05-15.56.29-4.34-6.46-4.32-6.75,0-.35,5.19-.7,10.37-1.05,15.56-.09,1.37,1.11,2.99,2.48,3.25,8.38,1.64,16.59,1.7,24.99.22l-3.81-4.96c-1.33,2.03-1.67,4.06-1.74,6.47-.03,1.05.53,3.37-.04,4.34-1.1,1.87-3.31,1.34-5.15,1.31-8.03-.15-16.06-.39-24.1-.59l3.25,4.27c.66-4.33,1.32-8.66,1.98-12.99.41-2.71-1.45-4.55-4.15-4.15-7.21,1.07-14.82-.96-21.46,2.97-4.79,2.84-7.26,8.3-5.68,13.68,1.21,4.16,7.73,2.39,6.51-1.79h0Z" fill="#231815"></path><path class="a13942" d="m624.73,626.83c-.84,3.89-1.68,7.79-2.53,11.68-.47,2.18.98,4.2,3.25,4.27,5.27.17,10.54.35,15.82.52,3.73.12,7.73.72,11.42.05,2.45-.45,4.89-1.58,6.09-3.9.7-1.34.85-2.81.75-4.28-.08-1.21-1.46-4.14-.3-5.12,2.29-1.94.38-5.77-2.39-5.76-5.7.03-11.39.05-17.09.08-4.34.02-4.35,6.77,0,6.75,5.7-.03,11.39-.05,17.09-.08l-2.39-5.76c-1.54,1.3-2.32,2.97-2.44,5-.18,2.98,2.23,6.37-2.19,6.54-8.06.29-16.31-.52-24.37-.79l3.25,4.27c.84-3.89,1.68-7.79,2.53-11.68.92-4.24-5.59-6.04-6.51-1.79h0Z" fill="#231815"></path><g><g><path class="a13942" d="m370.48,385.52v11.29c0,4.34,6.75,4.35,6.75,0v-11.29c0-4.34-6.75-4.35-6.75,0h0Z" fill="#231815"></path><path class="a13942" d="m527.95,385.52v11.29c0,4.34,6.75,4.35,6.75,0v-11.29c0-4.34-6.75-4.35-6.75,0h0Z" fill="#231815"></path></g><g><path class="a13942" d="m370.48,365.96v11.29c0,4.34,6.75,4.35,6.75,0v-11.29c0-4.34-6.75-4.35-6.75,0h0Z" fill="#231815"></path><path class="a13942" d="m527.95,365.96v11.29c0,4.34,6.75,4.35,6.75,0v-11.29c0-4.34-6.75-4.35-6.75,0h0Z" fill="#231815"></path></g><g><path class="a13942" d="m370.48,346.4v11.29c0,4.34,6.75,4.35,6.75,0v-11.29c0-4.34-6.75-4.35-6.75,0h0Z" fill="#231815"></path><path class="a13942" d="m527.95,346.4v11.29c0,4.34,6.75,4.35,6.75,0v-11.29c0-4.34-6.75-4.35-6.75,0h0Z" fill="#231815"></path></g></g><g><path class="a13942" d="m428.27,484.06c4.92,1.89,9.96,3.23,15.15,4.11,4.25.71,6.08-5.79,1.79-6.51-5.19-.87-10.23-2.22-15.15-4.11-4.06-1.56-5.82,4.97-1.79,6.51h0Z" fill="#231815"></path><path class="a13942" d="m405.71,469.65c3.36,3.28,7.06,6.18,11.03,8.69,3.68,2.33,7.07-3.51,3.41-5.83s-6.7-4.74-9.66-7.63c-3.11-3.04-7.89,1.73-4.77,4.77h0Z" fill="#231815"></path><path class="a13942" d="m393.98,443.79c.11,5.85,1.67,11.36,4.43,16.5,2.06,3.83,7.89.42,5.83-3.41-2.2-4.1-3.43-8.43-3.51-13.09-.08-4.34-6.83-4.35-6.75,0h0Z" fill="#231815"></path><path class="a13942" d="m475.11,477.56c-4.92,1.89-9.96,3.23-15.15,4.11-4.27.72-2.46,7.22,1.79,6.51,5.19-.87,10.23-2.22,15.15-4.11,4.01-1.54,2.27-8.07-1.79-6.51h0Z" fill="#231815"></path><path class="a13942" d="m494.69,464.88c-2.96,2.89-6.17,5.42-9.66,7.63s-.28,8.16,3.41,5.83c3.96-2.51,7.67-5.41,11.03-8.69,3.11-3.04-1.66-7.81-4.77-4.77h0Z" fill="#231815"></path><path class="a13942" d="m504.44,443.79c-.09,4.66-1.31,8.99-3.51,13.09-2.06,3.83,3.77,7.24,5.83,3.41,2.76-5.14,4.33-10.65,4.43-16.5.08-4.35-6.67-4.35-6.75,0h0Z" fill="#231815"></path></g><path class="a13942" d="m165.44,397.35c-1.28-14.22-.33-28.49,3.18-42.35,1.69-6.68,3.75-13.58,6.91-19.73,2.95-5.73,10.65-13.4,16.83-6.69,5,5.43,2.75,14.63,1.88,21.1-1.04,7.74-2.09,15.48-3.13,23.23-2,14.84-4,29.68-6,44.52-.57,4.25,5.93,6.09,6.51,1.79,2.61-19.35,5.22-38.71,7.83-58.06,1.64-12.16,8.11-34.5-7.32-40.83s-23.77,13.01-27.47,24.17c-5.63,16.98-7.56,35.06-5.96,52.86.39,4.29,7.14,4.33,6.75,0h0Z" fill="#231815"></path><path class="a13942" d="m136.03,401.62c1.56-6.68,9.14-9.81,15.48-8.12,7.73,2.06,11.66,10.67,12.27,18.01.69,8.26-2.12,17.84-9.54,22.37s-19.1,1.51-18.9-8.69l-6.29,1.7c2.94,4.98,1.25,12.38-4.44,14.65s-11.96-1.99-13.3-7.6l-4.96,3.81c6.78,3.85,10.33,12.94,6.54,20.13s-12.75,9.42-19.88,6.48c-4.02-1.65-5.76,4.88-1.79,6.51,10.35,4.25,23.3-.48,28.06-10.74s.08-22.78-9.52-28.22c-2.61-1.48-5.64.96-4.96,3.81,2.27,9.51,13.12,15.82,22.43,12.04s12.6-15.88,7.64-24.29c-1.72-2.91-6.23-1.63-6.29,1.7-.24,12.32,12.14,20.27,23.56,16.94,12.5-3.65,18.85-16.92,18.46-29.23-.35-10.76-6.09-22.93-17.3-25.91-9.77-2.6-21.38,2.56-23.78,12.83-.99,4.23,5.52,6.03,6.51,1.79h0Z" fill="#231815"></path><path class="a13942" d="m170.34,459.83c-1.93-7.73-4.26-16.26-1.84-24.14,1.77-5.79,6.93-12.01,13.61-11.36s10.99,6.95,12.35,12.79c1.96,8.41-1.16,17.25-3.72,25.18-.5,1.56.38,2.91,1.55,3.81,15.7,12.07,8.36,34.24-4.13,45.36-11.97,10.65-28.37,14.9-44.13,13.6s-30.46-7.98-41.09-19.2-15.98-27.34-15.52-43.06c.52-17.61,8.01-34.61,21.39-46.17,3.29-2.85-1.5-7.6-4.77-4.77-27.6,23.85-31.64,69.76-7.23,97.29,24.15,27.24,71.12,31.4,97.77,5.54,15.1-14.65,19.4-40.35,1.11-54.42l1.55,3.81c3.28-10.14,6.78-21.65,2.64-32.08-2.93-7.37-9.47-14.01-17.78-14.43s-15.12,5.27-18.55,12.31c-4.89,10.02-2.29,21.46.27,31.73,1.05,4.21,7.56,2.43,6.51-1.79h0Z" fill="#231815"></path><g><path class="a13942" d="m394.19,434.11h19.62c4.34,0,4.35-6.75,0-6.75h-19.62c-4.34,0-4.35,6.75,0,6.75h0Z" fill="#231815"></path><path class="a13942" d="m426.58,434.11h19.62c4.34,0,4.35-6.75,0-6.75h-19.62c-4.34,0-4.35,6.75,0,6.75h0Z" fill="#231815"></path><path class="a13942" d="m458.97,434.11h19.62c4.34,0,4.35-6.75,0-6.75h-19.62c-4.34,0-4.35,6.75,0,6.75h0Z" fill="#231815"></path><path class="a13942" d="m491.36,434.11h19.62c4.34,0,4.35-6.75,0-6.75h-19.62c-4.34,0-4.35,6.75,0,6.75h0Z" fill="#231815"></path></g></g><path class="a13942" d="m656.85,105.82h-185.54c-1.82,0-3.38,1.55-3.38,3.38v97.11c0,1.82,1.55,3.38,3.38,3.38h76.05l-3.25-4.27c-3.49,15.5-3.18,31.66-6.67,47.16-.72,3.21,3.18,5.75,5.64,3.28,10.11-10.1,15.1-24.85,22.24-36.98,1.64-2.79,3.71-5.31,5.39-8.05,1.01-1.63,2.28-1.19-.35-1.14.21,0,.46-.03.66,0,2.21.37,4.8,0,7.03,0h78.78c1.82,0,3.38-1.55,3.38-3.38v-97.11c0-4.34-6.75-4.35-6.75,0v97.11l3.38-3.38h-77.54c-2.63,0-5.31-.17-7.94,0-3.51.23-5.22,2.72-7.27,5.47-9.83,13.18-14.06,30.97-25.79,42.68l5.64,3.28c3.49-15.5,3.18-31.66,6.67-47.16.48-2.12-.98-4.27-3.25-4.27h-76.05l3.38,3.38v-97.11l-3.38,3.38h185.54c4.34,0,4.35-6.75,0-6.75Z" fill="#231815"></path></g></svg>