<svg xmlns:xlink="http://www.w3.org/1999/xlink" xmlns="http://www.w3.org/2000/svg" viewBox="0 0 799.99 799.99" width="799.99"  height="799.99" ><defs><style>.a13950{fill:#e8d575;}.a13951{fill:#dcdddd;}.a13952{fill:#231815;}</style></defs><g id="Y_K20"><path class="a13950" d="m366.06,340.63l28.48-150.98,311.23,35.88-40.36,234.37-13.45,10.69-278.94-43.26s-1.47-14.24-6.96-19.73c-5.49-5.49,3.81-14.78,0-23.98s-4.08-18.78-4.08-18.78l19.61,2.02-6.39,28.59s-3.08,17.53,14.85,21.12c17.94,3.59,238.58,36.03,238.58,36.03,0,0,14.35,3.44,19.73-17.19,5.38-20.63,28.54-174.9,28.54-174.9,0,0,4.65-16.14-14.19-19.73-18.84-3.59-238.58-25.65-238.58-25.65,0,0-8.65-1.26-14.64,12.19-5.99,13.45-23.39,109.64-23.39,109.64l-20.05,3.67Z" style="" fill="#E8D575"></path><polygon class="a13950" points="665.41 459.9 574.57 540.5 531.14 530.93 545.86 516.04 583.41 523.16 644.51 466.15 665.41 459.9" style="" fill="#E8D575"></polygon><path class="a13951" d="m621.95,473.39l-41.6,38.37-42.22-4.28-19.49,19.03-172.64-35.72-4.26-13.8s-3.67,2.33,11.76-6.41c15.44-8.74,46.49-27.37,46.49-27.37l221.96,30.17Z" fill="#DCDDDD"></path><path class="a13950" d="m158.48,354.7s-16.89-1.49-23.18-14.06.35-59.05,20.27-78.97c19.92-19.92,53.11-18.87,71.28-8.39,18.17,10.48,17.47,23.76,17.47,23.76,0,0-5.64,24.9-33.57,28.17l11.21-20.49s6.28.7,8.38-6.99c2.1-7.69-11.88-9.08-15.37-5.59-3.49,3.49-3.77,17.56-12.76,26.56-8.99,8.99-21.48,14.88-21.48,14.88,0,0-13.98-2.3-19.57,1.19" style="" fill="#E8D575"></path><path class="a13951" d="m326.45,543.01l-19.33-5.28v42.89s9.66-1.99,9.66,15.98-3.33,48.17-3.33,48.17h295.51c59.16,0,107.12-47.96,107.12-107.12v-37.46l-112.46,101.35-277.18-58.54Z" fill="#DCDDDD"></path></g><g id="_レイヤー_1"><path class="a13952" d="m180.53,317.37c-6.55-.02-11.75-2.98-17.44,1.77-4.2,3.5-6.74,9.05-7.54,14.37-1.65,11.03,6.46,22.28,18.38,18.91,4.17-1.18,2.4-7.69-1.79-6.51-8.87,2.51-11.34-7.82-9.22-14.36.95-2.92,2.76-6.61,5.66-8.06,3.49-1.75,8.18.62,11.96.63,4.34.01,4.35-6.74,0-6.75h0Z" fill="#231815"></path><path class="a13952" d="m132.21,294.45c5.02-25.83,24.67-48.73,50.98-54.16,13.24-2.73,27.37-.78,39.58,4.94,12.65,5.93,25.47,16.63,29.21,30.58,1.12,4.19,7.64,2.41,6.51-1.79-4.06-15.16-17.3-27.13-30.97-33.96-13.32-6.65-28.48-9.17-43.2-6.81-29.75,4.76-53,30.42-58.62,59.41-.82,4.24,5.68,6.06,6.51,1.79h0Z" fill="#231815"></path><path class="a13952" d="m225.2,322.42c0,3.48,0,6.95.01,10.43,0,4.34,6.76,4.35,6.75,0,0-3.48,0-6.95-.01-10.43,0-4.34-6.76-4.35-6.75,0h0Z" fill="#231815"></path><path class="a13952" d="m239.14,359.91c-10.38-5.61-20.75-11.22-31.13-16.84-1.71-.92-4.63-.24-4.96,2.02-1.37,9.36-2.74,18.73-4.11,28.09-.62,4.25,5.88,6.08,6.51,1.79,1.37-9.36,2.74-18.73,4.11-28.09l-4.96,2.02c10.38,5.61,20.75,11.22,31.13,16.84,3.82,2.07,7.23-3.76,3.41-5.83h0Z" fill="#231815"></path><path class="a13952" d="m133.6,403.55c10.65-9.63,26.84-2.96,35.66,5.91,10.57,10.62,16.57,24.83,26.11,36.29,17.61,21.16,47.34,30.59,73.71,22.16,14.72-4.7,27.23-14.09,36.41-26.42l-5.3.68c10.26,8.88,23.25,20.62,22.85,35.43-.42,15.63-16.33,25.9-28.75,32.27-27.85,14.28-61.48,14.78-89.53.81-15.01-7.47-28.07-18.47-38.05-31.94-2.56-3.45-8.42-.09-5.83,3.41,19.96,26.94,51.15,44.76,84.98,45.55,17.65.41,35.32-3.69,51.08-11.62,13.65-6.87,29.5-17.64,32.38-33.84,3.32-18.62-11.52-33.73-24.36-44.84-1.78-1.54-3.94-1.14-5.3.68-17.76,23.84-50.04,33.12-77.2,20.23-13.89-6.59-23.23-17.47-31.38-30.19-7.2-11.23-14.29-23.51-26.12-30.47s-25.84-8.18-36.14,1.13c-3.23,2.92,1.56,7.68,4.77,4.77h0Z" fill="#231815"></path><path class="a13952" d="m316.28,447.29c1.05-16.89,6.87-33.3,16.97-46.92,3.27-4.41,13.2-18.15,19.88-13.84,3.8,2.45,1.93,8.16-.55,10.88-2.88,3.15-7.3,4.63-11.19,6.04-3.42,1.24-3.12,6.69.9,6.63,13.99-.2,18.67,16.03,14.72,27.11-4.55,12.75-16.94,19.75-29.01,24.01-4.07,1.44-2.32,7.96,1.79,6.51,15.78-5.57,31.61-15.68,34.98-33.35,2.75-14.46-6.35-31.26-22.48-31.02l.9,6.63c9.39-3.39,20.14-9.17,18.65-20.91s-13.87-11.53-21.52-5.9c-9.33,6.88-16.59,17.89-21.53,28.21-5.41,11.3-8.47,23.43-9.24,35.93-.27,4.34,6.48,4.32,6.75,0h0Z" fill="#231815"></path><path class="a13952" d="m121.48,417.76c-9.07,36.98,2.63,73.79,9.03,110.13,5.39,30.61,7.12,66.91-13.36,92.67-1.44,1.81-1.25,5.09,1.49,5.64,50.14,10.1,104.31.22,147.05-28.2,4.8-3.19,9.54-6.5,14.3-9.75,5.23-3.57,10.31-7.86,17.06-7.48,10.06.58,17.17,9.75,16.89,19.49-.11,3.86-.64,7.75-.98,11.6-1.15,13.05-2.29,26.1-3.44,39.15-.38,4.33,6.37,4.3,6.75,0,1.05-11.9,2.09-23.81,3.14-35.71,1.15-13.06,3.38-26.89-8.54-36.12-7.42-5.74-17.4-6.75-25.75-2.4-5.26,2.74-10.06,6.68-14.94,10.01-17.82,12.15-36.55,22.15-57.3,28.41-29.92,9.02-61.8,10.67-92.45,4.5l1.49,5.64c20.18-25.38,20.91-59.19,16.57-89.94-5.41-38.34-20.06-76.92-10.51-115.84,1.03-4.22-5.47-6.02-6.51-1.79h0Z" fill="#231815"></path><path class="a13952" d="m358.08,511.2c43.64,7.99,87.28,15.98,130.92,23.97,22.15,4.05,44.29,8.11,66.44,12.16,5.21.95,10.42,1.91,15.63,2.86,2.81.51,4.8,1.33,7.24-.2,1.01-.63,1.92-1.57,2.84-2.32,28.42-23.23,56.84-46.47,85.26-69.7,2.79-2.28,6.66-4.53,8.96-7.33,1.31-1.59,1.32-3.94,1.66-5.91,2.05-11.95,4.11-23.89,6.16-35.84,7.09-41.23,14.18-82.46,21.27-123.69,4.88-28.35,9.96-56.68,14.63-85.07.07-.45.16-.91.23-1.36.4-2.34-.93-4.01-3.25-4.27-37.27-4.26-74.54-8.51-111.81-12.77-59.29-6.77-118.58-13.54-177.87-20.31-13.46-1.54-26.91-3.07-40.37-4.61-1.35-.15-3.01,1.15-3.25,2.48-7.9,42.7-15.8,85.39-23.7,128.09-1.11,6.02-2.23,12.05-3.34,18.07-.79,4.25,5.72,6.07,6.51,1.79,7.9-42.7,15.8-85.39,23.7-128.09,1.11-6.02,2.23-12.05,3.34-18.07l-3.25,2.48c37.27,4.26,74.54,8.51,111.81,12.77,59.29,6.77,118.58,13.54,177.87,20.31,13.46,1.54,26.91,3.07,40.37,4.61l-3.25-4.27c-2.93,17.04-5.86,34.09-8.79,51.13-6,34.91-12.01,69.82-18.01,104.73-4.78,27.8-9.56,55.61-14.34,83.41l-1.55,9c-.05.28-.48,1.62-.32,1.87-.17-.26,1.7-1.4.26-.8-3,1.24-6.17,5.05-8.66,7.08-5.55,4.54-11.1,9.07-16.64,13.61-13.84,11.32-27.68,22.63-41.52,33.95-9.37,7.66-19.27,14.95-28.23,23.08-.48.44-1.02.83-1.52,1.24l3.28-.87c-72.3-13.24-144.6-26.47-216.9-39.71-4.25-.78-6.07,5.73-1.79,6.51h0Z" fill="#231815"></path><path class="a13952" d="m252.8,352.23c-1.1,18.87-13.46,35.99-32.11,40.77-10.12,2.6-20.82.27-31.01-.93-1.14-.13-2.37.74-2.91,1.67-3.78,6.52-7.56,13.03-11.34,19.55-2.18,3.76,3.65,7.17,5.83,3.41,3.78-6.52,7.56-13.03,11.34-19.55l-2.91,1.67c13.2,1.56,26.02,3.86,38.82-1.31,18.53-7.48,29.91-25.68,31.05-45.28.25-4.34-6.5-4.32-6.75,0h0Z" fill="#231815"></path><path class="a13952" d="m218.59,279.7c-.94,11.86-8.62,22.77-19.94,26.8-4.06,1.45-2.31,7.97,1.79,6.51,14.33-5.1,23.7-18.29,24.9-33.31.34-4.33-6.41-4.31-6.75,0h0Z" fill="#231815"></path><path class="a13952" d="m199.84,314.18c19.62,3.77,39.39-5.51,49.75-22.47l-6.17-.81c2.57,6.72,1.17,13.86-4.2,18.76-1.94,1.77-.84,4.94,1.49,5.64,14.14,4.28,26.71-6.02,27.86-20.16.35-4.33-6.4-4.31-6.75,0-.81,9.92-9.62,16.59-19.32,13.65l1.49,5.64c6.98-6.37,9.31-16.51,5.93-25.33-1.01-2.65-4.56-3.44-6.17-.81-8.69,14.23-25.54,22.56-42.12,19.37-4.24-.82-6.06,5.69-1.79,6.51h0Z" fill="#231815"></path><path class="a13952" d="m123.12,304.32c-2.27,14.33-4.52,29.48,1.3,43.3,4.71,11.18,15.37,20.16,28.05,18.77,4.27-.47,4.32-7.22,0-6.75-11.56,1.27-19.97-7.76-23.1-18.12-3.49-11.54-1.59-23.76.26-35.41.67-4.25-5.83-6.08-6.51-1.79h0Z" fill="#231815"></path><path class="a13952" d="m280.73,359.65c31-5.67,62.01-11.34,93.01-17.01,4.42-.81,8.84-1.62,13.26-2.42,1.07-.2,2.15-1.3,2.36-2.36,6.05-30.26,12.1-60.53,18.15-90.79,1.11-5.57,2.2-11.15,3.34-16.71,1.43-6.99,5.7-12.32,13.5-11.75,7.23.53,14.46,1.56,21.66,2.33,36.06,3.88,72.13,7.76,108.19,11.64,32.73,3.52,65.46,7.04,98.19,10.56,9.61,1.03,22.48,1.21,21.01,15.27-.89,8.49-2.84,16.99-4.24,25.4-6.29,37.67-12.59,75.35-18.88,113.02-2.11,12.62-4.21,25.23-6.32,37.85-.77,4.59-1.35,9.12-5.43,12.21-3.62,2.75-7.25,2.39-11.27,1.81l-84.23-12.28c-38.32-5.59-76.64-11.18-114.96-16.76l-33.56-4.89c-1.96-.29-4.03-.43-5.95-.93-12.39-3.22-8.5-16.16-6.62-25.02,1.48-6.97,2.96-13.93,4.44-20.9.49-2.31-1-4.04-3.25-4.27-30.12-3.1-60.24-6.2-90.36-9.29-4.31-.44-8.61-.89-12.92-1.33s-4.29,6.31,0,6.75c30.12,3.1,60.24,6.2,90.36,9.29,4.31.44,8.61.89,12.92,1.33l-3.25-4.27c-1.61,7.56-3.21,15.12-4.82,22.69-1.96,9.22-4.4,18.61,2.96,26.38,6.04,6.38,16.43,6.34,24.6,7.53,35.45,5.17,70.9,10.34,106.35,15.51,35.29,5.15,70.58,10.29,105.86,15.44,8.32,1.21,18.84,4.35,26.44-.43,9.5-5.97,9.59-19.08,11.25-29.02,6.34-37.97,12.69-75.94,19.03-113.91,2.43-14.53,4.85-29.06,7.28-43.59.41-2.48.91-4.96,1.22-7.46,1.35-10.92-6-20.36-16.86-21.7-24.86-3.07-49.85-5.36-74.75-8.04-40.39-4.34-80.77-8.69-121.16-13.03-12.39-1.33-24.79-2.67-37.18-4-1.97-.21-3.94-.51-5.91-.64-9.83-.65-17.6,6.2-19.61,15.58-7.02,32.75-13.14,65.71-19.7,98.55-.67,3.36-1.35,6.73-2.02,10.09l2.36-2.36c-31,5.67-62.01,11.34-93.01,17.01-4.42.81-8.84,1.62-13.26,2.42s-2.46,7.29,1.79,6.51Z" fill="#231815"></path><path class="a13952" d="m628.39,471.05c-31.74-5.33-63.82-8.92-95.68-13.52-32.28-4.66-64.54-9.5-96.83-14.05-17.84-2.51-35.67-5.08-53.4-8.29-4.25-.77-6.07,5.74-1.79,6.51,31.44,5.69,63.2,9.64,94.8,14.34,31.95,4.76,63.93,9.63,95.95,13.91,18.4,2.46,36.85,4.53,55.16,7.61,4.25.71,6.08-5.79,1.79-6.51h0Z" fill="#231815"></path><path class="a13952" d="m604.52,489.75c-15.96-2.38-31.93-4.68-47.89-7.05-7.9-1.17-15.8-2.36-23.7-3.59-7.94-1.23-16-3.06-24.01-3.55-15.92-.98-31.25-4.66-46.97-6.99-16.09-2.38-32.2-4.57-48.29-6.97-17.44-2.6-34.9-5.09-52.4-7.32-4.3-.55-4.26,6.21,0,6.75,31.41,4.01,62.73,8.77,94.07,13.34,15.35,2.24,30.42,5.75,45.87,7.18s32,4.41,47.97,6.8c17.84,2.67,35.7,5.24,53.55,7.9,4.25.63,6.08-5.87,1.79-6.51h0Z" fill="#231815"></path><path class="a13952" d="m582.59,508.73c-39.57-6.78-79.37-12.1-119.16-17.37-20.71-2.74-41.39-5.47-62.01-8.85-19.85-3.26-39.69-6.61-59.68-8.89-4.31-.49-4.27,6.26,0,6.75,20.04,2.29,39.91,5.71,59.8,8.97,19.93,3.26,39.94,5.87,59.96,8.52,39.84,5.27,79.67,10.59,119.29,17.38,4.25.73,6.07-5.78,1.79-6.51h0Z" fill="#231815"></path><path class="a13952" d="m350.26,476.31c17.76-10.06,35.53-20.12,53.29-30.17,3.78-2.14.38-7.97-3.41-5.83-17.76,10.06-35.53,20.12-53.29,30.17-3.78,2.14-.38,7.97,3.41,5.83h0Z" fill="#231815"></path><path class="a13952" d="m382.33,482.45c17.76-10.06,35.53-20.12,53.29-30.17,3.78-2.14.38-7.97-3.41-5.83-17.76,10.06-35.53,20.12-53.29,30.17-3.78,2.14-.38,7.97,3.41,5.83h0Z" fill="#231815"></path><path class="a13952" d="m414.41,488.59c17.76-10.06,35.53-20.12,53.29-30.17,3.78-2.14.38-7.97-3.41-5.83-17.76,10.06-35.53,20.12-53.29,30.17-3.78,2.14-.38,7.97,3.41,5.83h0Z" fill="#231815"></path><path class="a13952" d="m449.05,492.3c17.76-10.06,35.53-20.12,53.29-30.17,3.78-2.14.38-7.97-3.41-5.83-17.76,10.06-35.53,20.12-53.29,30.17-3.78,2.14-.38,7.97,3.41,5.83h0Z" fill="#231815"></path><path class="a13952" d="m486.56,496.35c17.76-10.06,35.53-20.12,53.29-30.17,3.78-2.14.38-7.97-3.41-5.83-17.76,10.06-35.53,20.12-53.29,30.17-3.78,2.14-.38,7.97,3.41,5.83h0Z" fill="#231815"></path><path class="a13952" d="m518.93,503.68c17.76-10.06,35.53-20.12,53.29-30.17,3.78-2.14.38-7.97-3.41-5.83-17.76,10.06-35.53,20.12-53.29,30.17-3.78,2.14-.38,7.97,3.41,5.83h0Z" fill="#231815"></path><path class="a13952" d="m345.1,494.05c24.86,4.38,49.73,8.76,74.59,13.15,11.64,2.05,23.36,4.73,35.11,6.05,9.05,1.02,18.61-1.83,21.44-11.38,1.23-4.17-5.28-5.96-6.51-1.79-3.36,11.34-20.6,5.48-28.62,4.07-10.47-1.84-20.94-3.69-31.41-5.53-20.94-3.69-41.88-7.38-62.82-11.07-4.25-.75-6.07,5.76-1.79,6.51h0Z" fill="#231815"></path><path class="a13952" d="m492.8,499.72c-3.79,4.17-7.58,8.35-11.37,12.52-1.66,1.83-1.07,4.98,1.49,5.64,11.01,2.85,22.02,5.69,33.04,8.54,4.21,1.09,6-5.42,1.79-6.51-11.01-2.85-22.02-5.69-33.04-8.54l1.49,5.64c3.79-4.17,7.58-8.35,11.37-12.52,2.92-3.21-1.84-8-4.77-4.77h0Z" fill="#231815"></path><path class="a13952" d="m535.75,505.1c-3.18,2.85-6.37,5.7-9.55,8.55s1.54,7.66,4.77,4.77,6.37-5.7,9.55-8.55-1.54-7.66-4.77-4.77h0Z" fill="#231815"></path><path class="a13952" d="m257.3,211.61c7.97-8.61,15.94-17.21,23.91-25.82,2.95-3.18-1.81-7.97-4.77-4.77-7.97,8.61-15.94,17.21-23.91,25.82-2.95,3.18,1.81,7.97,4.77,4.77h0Z" fill="#231815"></path><path class="a13952" d="m269.01,240.34l45.21-14.15c4.13-1.29,2.37-7.81-1.79-6.51l-45.21,14.15c-4.13,1.29-2.37,7.81,1.79,6.51h0Z" fill="#231815"></path><path class="a13952" d="m306.22,540.98c21.98,4.47,43.97,8.93,65.95,13.4,43.5,8.84,87,17.68,130.5,26.52,31.29,6.36,62.58,12.72,93.88,19.08,1.97.4,4.11,1.13,6.12,1.24,3.06.18,5.08-2.33,7.29-4.23l37.08-31.82c27.95-23.99,55.91-47.98,83.86-71.97.55-.48,1.11-.95,1.66-1.43,3.3-2.83-1.49-7.59-4.77-4.77-36.99,31.74-73.98,63.49-110.97,95.23-5.19,4.45-10.38,8.9-15.56,13.36l3.28-.87c-33.35-6.78-66.71-13.56-100.06-20.33-53.21-10.81-106.42-21.63-159.62-32.44-12.27-2.49-24.55-4.99-36.82-7.48-4.24-.86-6.05,5.64-1.79,6.51h0Z" fill="#231815"></path></g></svg>