<svg xmlns:xlink="http://www.w3.org/1999/xlink" xmlns="http://www.w3.org/2000/svg" viewBox="0 0 799.99 799.99" width="799.99"  height="799.99" ><defs><style>.a14010{fill:#e8d575;}.a14011{fill:#dcdddd;}.a14012{fill:#231815;}</style></defs><g id="Y_K20"><polygon class="a14011" points="201.89 297.01 193.63 338.93 238.03 330.42 211.86 293.2 201.89 297.01" fill="#DCDDDD"></polygon><polygon class="a14011" points="397.24 260.85 389.85 306.1 433.38 298.15 408.74 258.73 397.24 260.85" fill="#DCDDDD"></polygon><polyline class="a14011" points="225.5 502.41 226.56 517.44 233.09 520.9 267.11 515.79 271.02 507.69 268.74 493.63 223.1 502.91" fill="#DCDDDD"></polyline><path class="a14011" d="m417.55,467.52l45.98-7.46,1.97,16.49s.93,6.63-11.18,8.85-27.78,5.16-27.78,5.16c0,0-6.8-11.14-8.99-23.05Z" fill="#DCDDDD"></path><path class="a14011" d="m472.65,456.82l45.98-7.46,1.97,16.49s.93,6.63-11.18,8.85-27.78,5.16-27.78,5.16c0,0-6.8-11.14-8.99-23.05Z" fill="#DCDDDD"></path><polygon class="a14011" points="132.93 268.87 155.32 281.78 530.31 209.86 527.42 194.12 132.93 268.87" fill="#DCDDDD"></polygon><path class="a14010" d="m423.2,606.74c-2.62-4.47-9.31-6.73-13.85-3.63-6.13,4.18-12.82,7.11-20.23,8.13-3.66.5-7.57.53-11.24.09-1.56-.19-3.2-.68-4.78-.68-2.78,0-5.45,1.36-8,2.29-8.26,3-16.48,6.15-24.79,8.99-2.43.83-4.9,1.58-6.9,1.7-1.16.07-1.62.12-2.06.06-.05-.12-.11-.24-.18-.4-3.17-6.88-14.15-6.34-17.49,0-3.72,7.07-9.66,19.39-18.58,20.17-5.06.44-10.01-3.4-14.15-5.79-5.9-3.4-12.07-6.14-18.83-7.2-28.63-4.5-52.82,13.27-69.72,34.6-3.39,4.28-4.18,10.14,0,14.32,3.52,3.52,10.9,4.31,14.32,0,14.54-18.34,38.26-38.7,62.63-25.02,12.13,6.81,24.13,12.85,37.88,6.31,7.85-3.73,13.72-10.39,18.46-17.7,4.93,1.22,10.45.93,15.33-.15,11.27-2.5,22.39-7.68,33.26-11.72,15.89,1.93,31.86-1.35,45.29-10.5,4.51-3.08,6.53-8.9,3.63-13.85Z" style="" fill="#E8D575"></path><polygon class="a14010" points="264.01 285.59 257.16 327.51 294.02 319 272.29 281.78 264.01 285.59" style="" fill="#E8D575"></polygon><polygon class="a14010" points="347.08 269.54 336.77 312.3 371.44 312.02 371.55 307.38 356.76 268.87 347.08 269.54" style="" fill="#E8D575"></polygon><polygon class="a14010" points="458.27 249.86 451.97 295.11 489.09 287.16 468.08 247.74 458.27 249.86" style="" fill="#E8D575"></polygon><path class="a14010" d="m279.48,492.73l3.55,14.53,10.99,5.17,10.7.83,1.75-1.78c5.18-5.27,7.57-12.68,6.45-19.98l-.7-4.53-32.74,5.76Z" style="" fill="#E8D575"></path><path class="a14010" d="m339.28,477.48v19.68l4.05,2.96,21.6-1.51,1.1-1.63c3.56-5.27,5.04-11.66,4.17-17.96l-.68-4.92-30.25,3.37Z" style="" fill="#E8D575"></path><polygon class="a14010" points="450.13 564.89 411.84 601.98 417.55 616.37 473.22 610.83 450.13 564.89" style="" fill="#E8D575"></polygon><path class="a14010" d="m621.91,484.74l25.71,44.55s15.95-1.83,17.88-8.39-4.15-22.88-4.15-22.88l-12.2-20.54s-9.15.56-14.91.56-12.33,6.7-12.33,6.7Z" style="" fill="#E8D575"></path></g><g id="_レイヤー_1"><path class="a14012" d="m577.48,467.8c-13.15,2.42-26.3,4.84-39.44,7.26-31.4,5.78-62.8,11.56-94.19,17.34-37.96,6.99-75.92,13.97-113.89,20.96-32.95,6.06-65.9,12.13-98.86,18.19-10.77,1.98-21.54,3.96-32.31,5.95-4.74.87-11.03.95-15.5,2.85-.19.08-.46.09-.67.12,1.38.79,2.77,1.57,4.15,2.36-5.74-31.18-11.48-62.36-17.22-93.54-9.15-49.71-18.3-99.41-27.45-149.12-2.1-11.42-4.21-22.85-6.31-34.27-.79,1.38-1.57,2.77-2.36,4.15,13.15-2.42,26.3-4.84,39.44-7.26,31.4-5.78,62.8-11.56,94.19-17.34,37.96-6.99,75.92-13.97,113.89-20.96,32.95-6.06,65.9-12.13,98.86-18.19,10.77-1.98,21.54-3.96,32.31-5.95,4.74-.87,11.03-.95,15.5-2.85.19-.08.46-.09.67-.12-1.38-.79-2.77-1.57-4.15-2.36,5.74,31.18,11.48,62.36,17.22,93.54,9.15,49.71,18.3,99.41,27.45,149.12,2.1,11.42,4.21,22.85,6.31,34.27.79,4.27,7.29,2.46,6.51-1.79-5.74-31.18-11.48-62.36-17.22-93.54-9.15-49.71-18.3-99.41-27.45-149.12-2.1-11.42-4.21-22.85-6.31-34.27-.35-1.9-2.49-2.66-4.15-2.36-13.15,2.42-26.3,4.84-39.44,7.26-31.4,5.78-62.8,11.56-94.19,17.34-37.96,6.99-75.92,13.97-113.89,20.96-32.95,6.06-65.9,12.13-98.86,18.19-10.77,1.98-21.54,3.96-32.31,5.95-5.05.93-10.56,1.38-15.5,2.85-.21.06-.45.08-.67.12-1.9.35-2.66,2.49-2.36,4.15,5.74,31.18,11.48,62.36,17.22,93.54,9.15,49.71,18.3,99.41,27.45,149.12,2.1,11.42,4.21,22.85,6.31,34.27.35,1.9,2.49,2.66,4.15,2.36,13.15-2.42,26.3-4.84,39.44-7.26,31.4-5.78,62.8-11.56,94.19-17.34,37.96-6.99,75.92-13.97,113.89-20.96,32.95-6.06,65.9-12.13,98.86-18.19,10.77-1.98,21.54-3.96,32.31-5.95,5.05-.93,10.56-1.38,15.5-2.85.21-.06.45-.08.67-.12,4.27-.79,2.46-7.29-1.79-6.51Z" fill="#231815"></path><path class="a14012" d="m525.71,197.04c8.85,6.68,17.71,13.36,26.56,20.04l6.19,4.67c.64.48,1.28,1.1,1.98,1.5,2.22,1.24-2.2-.33-.75-1.41-.16.12.43,2.36.47,2.55,2.98,16.17,5.95,32.35,8.93,48.52,9.97,54.17,19.94,108.34,29.91,162.51,2.56,13.92,5.12,27.84,7.69,41.76.79,4.27,7.29,2.46,6.51-1.79-6.93-37.66-13.86-75.32-20.79-112.97-8.45-45.93-16.91-91.86-25.36-137.8-.25-1.37-.3-3.1-.81-4.4-1.03-2.61-4.53-4.42-6.7-6.05-10.14-7.65-20.29-15.3-30.43-22.96-3.47-2.62-6.84,3.24-3.41,5.83h0Z" fill="#231815"></path><path class="a14012" d="m181.82,546.64c12.14,6.35,24.28,12.7,36.42,19.05,2.4,1.26,4.36,2.69,7.12,2.37,1.71-.2,3.42-.63,5.11-.94,21.76-4,43.51-8.01,65.27-12.01,34.5-6.35,69-12.7,103.5-19.05,32.87-6.05,65.74-12.1,98.61-18.15l34.06-6.27c5.37-.99,11.11-1.53,16.38-3.01.25-.07.51-.09.76-.14,4.27-.79,2.46-7.29-1.79-6.51-36.47,6.71-72.94,13.42-109.41,20.13-58.17,10.71-116.34,21.41-174.52,32.12-13.41,2.47-26.82,4.94-40.23,7.4.87.11,1.73.23,2.6.34-13.49-7.06-26.98-14.11-40.47-21.17-3.85-2.01-7.26,3.81-3.41,5.83h0Z" fill="#231815"></path><path class="a14012" d="m260.76,515.18c-7.18,1.32-14.35,2.7-21.55,3.97-6.34,1.11-10.13-2.45-11.25-8.34-2.08-10.95-4.03-21.92-6.05-32.88-6.72-36.52-13.44-73.03-20.16-109.55-1.75-9.49-3.49-18.98-5.24-28.48l-2.36,4.15c15.27-2.81,30.54-5.62,45.8-8.43-1.38-.79-2.77-1.57-4.15-2.36,3.75,20.39,7.51,40.78,11.26,61.18,5.77,31.36,11.54,62.72,17.32,94.09.86,4.69,1.73,9.38,2.59,14.07,1.01,5.48.57,10.93-6.21,12.59-4.22,1.03-2.43,7.54,1.79,6.51,8.43-2.06,12.83-9.59,11.46-17.96-.44-2.7-.99-5.38-1.48-8.06-2.39-12.96-4.77-25.93-7.16-38.89-6.19-33.62-12.37-67.23-18.56-100.85-1.5-8.15-3-16.31-4.5-24.46-.35-1.9-2.49-2.66-4.15-2.36-15.27,2.81-30.54,5.62-45.8,8.43-1.9.35-2.66,2.49-2.36,4.15,4.88,26.5,9.75,53,14.63,79.5,5.63,30.57,11,61.2,16.88,91.72,1.68,8.73,8.7,14.48,17.8,13.05,7.77-1.22,15.5-2.85,23.24-4.28,4.27-.79,2.46-7.29-1.79-6.51Z" fill="#231815"></path><path class="a14012" d="m213.03,288.9c-3.84.71-7.67,1.41-11.51,2.12-1.07.2-2.15,1.3-2.36,2.36-3.06,15.51-6.11,31.02-9.17,46.53-.52,2.64,1.54,4.63,4.15,4.15,15.27-2.81,30.54-5.62,45.8-8.43,2.13-.39,3.1-3.23,2.02-4.96-8.38-13.41-16.75-26.81-25.13-40.22-2.3-3.68-8.14-.29-5.83,3.41,8.38,13.41,16.75,26.81,25.13,40.22.67-1.65,1.34-3.31,2.02-4.96-15.27,2.81-30.54,5.62-45.8,8.43,1.38,1.38,2.77,2.77,4.15,4.15,3.06-15.51,6.11-31.02,9.17-46.53l-2.36,2.36c3.84-.71,7.67-1.41,11.51-2.12,4.27-.79,2.46-7.29-1.79-6.51Z" fill="#231815"></path><path class="a14012" d="m199.7,361.09c13.08-2.41,26.16-4.81,39.23-7.22,4.27-.79,2.46-7.29-1.79-6.51-13.08,2.41-26.16,4.81-39.23,7.22-4.27.79-2.46,7.29,1.79,6.51h0Z" fill="#231815"></path><path class="a14012" d="m226.39,504.2c10.55-1.94,21.11-3.88,31.66-5.83,4.27-.79,2.46-7.29-1.79-6.51l-31.66,5.83c-4.27.79-2.46,7.29,1.79,6.51h0Z" fill="#231815"></path><path class="a14012" d="m317.11,504.81c-7.18,1.32-14.35,2.7-21.55,3.97-6.34,1.11-10.13-2.45-11.25-8.34-2.08-10.95-4.03-21.92-6.05-32.88-6.72-36.52-13.44-73.03-20.16-109.55-1.75-9.49-3.49-18.98-5.24-28.48-.79,1.38-1.57,2.77-2.36,4.15,15.27-2.81,30.54-5.62,45.8-8.43-1.38-.79-2.77-1.57-4.15-2.36,3.75,20.39,7.51,40.78,11.26,61.18,5.77,31.36,11.54,62.72,17.32,94.09.86,4.69,1.73,9.38,2.59,14.07,1.01,5.48.57,10.93-6.21,12.59-4.22,1.03-2.43,7.54,1.79,6.51,8.43-2.06,12.83-9.59,11.46-17.96-.44-2.7-.99-5.38-1.48-8.06l-7.16-38.89c-6.19-33.62-12.37-67.23-18.56-100.85-1.5-8.15-3-16.31-4.5-24.46-.35-1.9-2.49-2.66-4.15-2.36-15.27,2.81-30.54,5.62-45.8,8.43-1.9.35-2.66,2.49-2.36,4.15,4.88,26.5,9.75,53,14.63,79.5,5.63,30.57,11,61.2,16.88,91.72,1.68,8.73,8.7,14.48,17.8,13.05,7.77-1.22,15.5-2.85,23.24-4.28,4.27-.79,2.46-7.29-1.79-6.51Z" fill="#231815"></path><path class="a14012" d="m269.38,278.52c-3.84.71-7.67,1.41-11.51,2.12-1.07.2-2.15,1.3-2.36,2.36-3.06,15.51-6.11,31.02-9.17,46.53-.52,2.64,1.54,4.63,4.15,4.15,15.27-2.81,30.54-5.62,45.8-8.43,2.13-.39,3.1-3.23,2.02-4.96-8.38-13.41-16.75-26.81-25.13-40.22-2.3-3.68-8.14-.29-5.83,3.41,8.38,13.41,16.75,26.81,25.13,40.22.67-1.65,1.34-3.31,2.02-4.96-15.27,2.81-30.54,5.62-45.8,8.43l4.15,4.15c3.06-15.51,6.11-31.02,9.17-46.53l-2.36,2.36c3.84-.71,7.67-1.41,11.51-2.12,4.27-.79,2.46-7.29-1.79-6.51Z" fill="#231815"></path><path class="a14012" d="m256.05,350.72c13.08-2.41,26.16-4.81,39.23-7.22,4.27-.79,2.46-7.29-1.79-6.51-13.08,2.41-26.16,4.81-39.23,7.22-4.27.79-2.46,7.29,1.79,6.51h0Z" fill="#231815"></path><path class="a14012" d="m282.74,493.83c10.55-1.94,21.11-3.88,31.66-5.83,4.27-.79,2.46-7.29-1.79-6.51-10.55,1.94-21.11,3.88-31.66,5.83-4.27.79-2.46,7.29,1.79,6.51h0Z" fill="#231815"></path><g><path class="a14012" d="m372.99,495.95c-7.29.42-14.58.91-21.87,1.26-6.3.31-10.13-3.02-10.58-9.15-.81-11.11-1.29-22.25-1.93-33.37-2.14-37.07-4.28-74.14-6.42-111.2-.56-9.64-1.11-19.27-1.67-28.91l-3.38,3.38c15.5-.9,31-1.79,46.5-2.69l-3.38-3.38c1.2,20.7,2.39,41.4,3.59,62.1,1.84,31.84,3.68,63.67,5.52,95.51.42,7.31,4.56,25.18-6.38,26.45-4.26.49-4.31,7.25,0,6.75,8.52-.99,14.32-7.27,14.12-15.95-.06-2.73-.32-5.46-.47-8.19-.76-13.16-1.52-26.32-2.28-39.48-1.97-34.12-3.94-68.25-5.91-102.37-.48-8.28-.96-16.55-1.43-24.83-.1-1.74-1.47-3.49-3.38-3.38-15.5.9-31,1.79-46.5,2.69-1.74.1-3.49,1.47-3.38,3.38,1.55,26.9,3.11,53.8,4.66,80.7,1.79,31.03,3.33,62.09,5.38,93.1.58,8.82,6.23,15.72,15.59,15.68,7.84-.04,15.76-.91,23.6-1.36,4.32-.25,4.35-7,0-6.75Z" fill="#231815"></path><path class="a14012" d="m353.69,265.49c-3.89.22-7.79.45-11.68.67-1.56.09-2.77,1-3.25,2.48-4.95,15.01-9.91,30.02-14.86,45.03-.66,2.01,1.13,4.4,3.25,4.27,15.5-.9,31-1.79,46.5-2.69,2.7-.16,4.01-2.71,2.91-5.08-6.65-14.34-13.3-28.68-19.95-43.02-1.83-3.94-7.65-.51-5.83,3.41,6.65,14.34,13.3,28.68,19.95,43.02.97-1.69,1.94-3.39,2.91-5.08-15.5.9-31,1.79-46.5,2.69,1.08,1.42,2.17,2.85,3.25,4.27,4.95-15.01,9.91-30.02,14.86-45.03-1.08.83-2.17,1.65-3.25,2.48,3.89-.22,7.79-.45,11.68-.67,4.32-.25,4.35-7,0-6.75Z" fill="#231815"></path><path class="a14012" d="m330.53,335.55c13.28-.77,26.55-1.53,39.83-2.3,4.32-.25,4.35-7,0-6.75-13.28.77-26.55,1.53-39.83,2.3-4.32.25-4.35,7,0,6.75h0Z" fill="#231815"></path><path class="a14012" d="m339.28,480.86c10.71-.62,21.43-1.24,32.14-1.86,4.32-.25,4.35-7,0-6.75-10.71.62-21.43,1.24-32.14,1.86-4.32.25-4.35,7,0,6.75h0Z" fill="#231815"></path></g><path class="a14012" d="m455.58,481.76c-7.18,1.32-14.35,2.7-21.55,3.97-6.34,1.11-10.13-2.45-11.25-8.34-2.08-10.95-4.03-21.92-6.05-32.88-6.72-36.52-13.44-73.03-20.16-109.55-1.75-9.49-3.49-18.98-5.24-28.48-.79,1.38-1.57,2.77-2.36,4.15,15.27-2.81,30.54-5.62,45.8-8.43l-4.15-2.36c3.75,20.39,7.51,40.78,11.26,61.18,5.77,31.36,11.54,62.72,17.32,94.09.86,4.69,1.73,9.38,2.59,14.07,1.01,5.48.57,10.93-6.21,12.59-4.22,1.03-2.43,7.54,1.79,6.51,8.43-2.06,12.83-9.59,11.46-17.96-.44-2.7-.99-5.38-1.48-8.06l-7.16-38.89c-6.19-33.62-12.37-67.23-18.56-100.85-1.5-8.15-3-16.31-4.5-24.46-.35-1.9-2.49-2.66-4.15-2.36-15.27,2.81-30.54,5.62-45.8,8.43-1.9.35-2.66,2.49-2.36,4.15,4.88,26.5,9.75,53,14.63,79.5,5.63,30.57,11,61.2,16.88,91.72,1.68,8.73,8.7,14.48,17.8,13.05,7.77-1.22,15.5-2.85,23.24-4.28,4.27-.79,2.46-7.29-1.79-6.51Z" fill="#231815"></path><path class="a14012" d="m407.85,255.48c-3.84.71-7.67,1.41-11.51,2.12-1.07.2-2.15,1.3-2.36,2.36-3.06,15.51-6.11,31.02-9.17,46.53-.52,2.64,1.54,4.63,4.15,4.15,15.27-2.81,30.54-5.62,45.8-8.43,2.13-.39,3.1-3.23,2.02-4.96-8.38-13.41-16.75-26.81-25.13-40.22-2.3-3.68-8.14-.29-5.83,3.41,8.38,13.41,16.75,26.81,25.13,40.22.67-1.65,1.34-3.31,2.02-4.96-15.27,2.81-30.54,5.62-45.8,8.43,1.38,1.38,2.77,2.77,4.15,4.15,3.06-15.51,6.11-31.02,9.17-46.53l-2.36,2.36c3.84-.71,7.67-1.41,11.51-2.12,4.27-.79,2.46-7.29-1.79-6.51Z" fill="#231815"></path><path class="a14012" d="m394.51,327.68c13.08-2.41,26.16-4.81,39.23-7.22,4.27-.79,2.46-7.29-1.79-6.51-13.08,2.41-26.16,4.81-39.23,7.22-4.27.79-2.46,7.29,1.79,6.51h0Z" fill="#231815"></path><path class="a14012" d="m421.21,470.78c10.55-1.94,21.11-3.88,31.66-5.83,4.27-.79,2.46-7.29-1.79-6.51-10.55,1.94-21.11,3.88-31.66,5.83-4.27.79-2.46,7.29,1.79,6.51h0Z" fill="#231815"></path><path class="a14012" d="m511.92,471.39c-7.18,1.32-14.35,2.7-21.55,3.97-6.34,1.11-10.13-2.45-11.25-8.34-2.08-10.95-4.03-21.92-6.05-32.88-6.72-36.52-13.44-73.03-20.16-109.55-1.75-9.49-3.49-18.98-5.24-28.48-.79,1.38-1.57,2.77-2.36,4.15,15.27-2.81,30.54-5.62,45.8-8.43l-4.15-2.36c3.75,20.39,7.51,40.78,11.26,61.18,5.77,31.36,11.54,62.72,17.32,94.09.86,4.69,1.73,9.38,2.59,14.07,1.01,5.48.57,10.93-6.21,12.59-4.22,1.03-2.43,7.54,1.79,6.51,8.43-2.06,12.83-9.59,11.46-17.96-.44-2.7-.99-5.38-1.48-8.06-2.39-12.96-4.77-25.93-7.16-38.89-6.19-33.62-12.37-67.23-18.56-100.85-1.5-8.15-3-16.31-4.5-24.46-.35-1.9-2.49-2.66-4.15-2.36-15.27,2.81-30.54,5.62-45.8,8.43-1.9.35-2.66,2.49-2.36,4.15,4.88,26.5,9.75,53,14.63,79.5,5.63,30.57,11,61.2,16.88,91.72,1.68,8.73,8.7,14.48,17.8,13.05,7.77-1.22,15.5-2.85,23.24-4.28,4.27-.79,2.46-7.29-1.79-6.51Z" fill="#231815"></path><path class="a14012" d="m464.2,245.11c-3.84.71-7.67,1.41-11.51,2.12-1.07.2-2.15,1.3-2.36,2.36-3.06,15.51-6.11,31.02-9.17,46.53-.52,2.64,1.54,4.63,4.15,4.15,15.27-2.81,30.54-5.62,45.8-8.43,2.13-.39,3.1-3.23,2.02-4.96-8.38-13.41-16.75-26.81-25.13-40.22-2.3-3.68-8.14-.29-5.83,3.41,8.38,13.41,16.75,26.81,25.13,40.22.67-1.65,1.34-3.31,2.02-4.96-15.27,2.81-30.54,5.62-45.8,8.43,1.38,1.38,2.77,2.77,4.15,4.15,3.06-15.51,6.11-31.02,9.17-46.53l-2.36,2.36c3.84-.71,7.67-1.41,11.51-2.12,4.27-.79,2.46-7.29-1.79-6.51Z" fill="#231815"></path><path class="a14012" d="m450.86,317.3c13.08-2.41,26.16-4.81,39.23-7.22,4.27-.79,2.46-7.29-1.79-6.51-13.08,2.41-26.16,4.81-39.23,7.22-4.27.79-2.46,7.29,1.79,6.51h0Z" fill="#231815"></path><path class="a14012" d="m477.55,460.41c10.55-1.94,21.11-3.88,31.66-5.83,4.27-.79,2.46-7.29-1.79-6.51-10.55,1.94-21.11,3.88-31.66,5.83-4.27.79-2.46,7.29,1.79,6.51h0Z" fill="#231815"></path><g><path class="a14012" d="m651.55,485.03c3.61,7.71,7.26,15.41,10.84,23.14,3.27,7.07.37,12.79-6.28,15.9-11.74,5.5-23.48,11-35.22,16.49-39.34,18.42-78.67,36.85-118.01,55.27-10.12,4.74-20.23,9.48-30.35,14.22l4.62,1.21c-7.68-16.4-15.36-32.79-23.04-49.19-.4,1.54-.81,3.08-1.21,4.62,22-10.3,43.99-20.61,65.99-30.91,33.71-15.79,67.42-31.58,101.14-47.37,4.97-2.33,9.94-4.65,14.91-6.98,6.11-2.86,12.72-3.73,16.62,3.6,2.04,3.84,7.87.43,5.83-3.41-4.6-8.66-14.24-11.3-22.96-7.37-3.04,1.37-6.03,2.83-9.05,4.24-14,6.55-27.99,13.11-41.99,19.66-35.97,16.84-71.93,33.69-107.9,50.53-8.67,4.06-17.33,8.12-26,12.18-1.75.82-1.92,3.09-1.21,4.62,7.68,16.4,15.36,32.79,23.04,49.19.82,1.75,3.09,1.92,4.62,1.21,28.21-13.21,56.42-26.42,84.63-39.64,33.02-15.46,66.03-30.93,99.05-46.39,9.13-4.28,13.72-13.62,9.45-23.28-3.7-8.4-7.79-16.64-11.69-24.95-1.84-3.93-7.66-.51-5.83,3.41Z" fill="#231815"></path><path class="a14012" d="m410.32,605.71c1.93,4.12,3.86,8.24,5.79,12.36.47,1,1.83,1.74,2.91,1.67,18.4-1.13,36.8-2.27,55.21-3.4,2.69-.17,4.03-2.71,2.91-5.08-7.68-16.4-15.36-32.79-23.04-49.19-.92-1.96-3.91-2.16-5.3-.68-12.65,13.41-25.3,26.82-37.95,40.23-2.98,3.16,1.78,7.94,4.77,4.77,12.65-13.41,25.3-26.82,37.95-40.23-1.77-.23-3.53-.46-5.3-.68,7.68,16.4,15.36,32.79,23.04,49.19l2.91-5.08c-18.4,1.13-36.8,2.27-55.21,3.4l2.91,1.67c-1.93-4.12-3.86-8.24-5.79-12.36-1.84-3.93-7.66-.51-5.83,3.41Z" fill="#231815"></path><path class="a14012" d="m494.73,599.97c-6.58-14.05-13.16-28.09-19.73-42.14-1.84-3.93-7.66-.51-5.83,3.41,6.58,14.05,13.16,28.09,19.73,42.14,1.84,3.93,7.66.51,5.83-3.41h0Z" fill="#231815"></path><path class="a14012" d="m648.32,527.59c-5.31-11.33-10.62-22.67-15.93-34-1.84-3.93-7.66-.51-5.83,3.41,5.31,11.33,10.62,22.67,15.93,34,1.84,3.93,7.66.51,5.83-3.41h0Z" fill="#231815"></path></g><path class="a14012" d="m215.11,535.99c-8.83-48-17.67-95.99-26.5-143.99-4.47-24.29-8.94-48.58-13.41-72.87-1.07-5.81-2.14-11.62-3.21-17.44l-1.61-8.75c-.49-2.64-.4-5.07-2.45-6.89s-5.04-3.31-7.42-4.88c-8.75-5.76-17.51-11.52-26.26-17.28-3.64-2.4-7.02,3.45-3.41,5.83,7.38,4.86,14.76,9.71,22.14,14.57,2.14,1.41,4.29,2.82,6.43,4.23,1.13.74,3.54,1.73,4.33,2.85.16.22.61.26.75.49-1.29-2.1-.74,3.51-.81,1.9.05,1.22.49,2.67.72,3.9,1.19,6.47,2.38,12.94,3.57,19.4,8.57,46.57,17.14,93.14,25.71,139.71,4.97,27.01,9.94,54.01,14.91,81.02.79,4.27,7.29,2.46,6.51-1.79h0Z" fill="#231815"></path><path class="a14012" d="m179.49,288.94c91.29-16.8,182.58-33.6,273.87-50.4,26.08-4.8,52.17-9.6,78.25-14.4,4.27-.79,2.46-7.29-1.79-6.51-91.29,16.8-182.58,33.6-273.87,50.4-26.08,4.8-52.17,9.6-78.25,14.4-4.27.79-2.46,7.29,1.79,6.51h0Z" fill="#231815"></path></g></svg>